<svg xmlns="http://www.w3.org/2000/svg" width="57.969" height="58" viewBox="0 0 57.969 58">
  <defs>
    <style>
      .cls-1 {
        fill: #fff;
        fill-rule: evenodd;
      }
    </style>
  </defs>
  <path class="cls-1" d="M473.782,3261.01a13.019,13.019,0,0,1-2.06-1.1,3.35,3.35,0,0,1-1.219-2.75q-0.006-17.91,0-35.81a3.844,3.844,0,0,1,3.851-3.85q17.889-.015,35.777,0a3.864,3.864,0,0,1,3.718,2.85c0.039,0.14.086,0.29,0.13,0.43v36.94a14.592,14.592,0,0,1-.892,1.85,3.928,3.928,0,0,1-2.392,1.44H473.782Zm36.671-41.53H474.027q9.15,9.165,18.212,18.23Q501.285,3228.665,510.453,3219.48Zm-37.975,37.93c6.072-6.08,12.157-12.17,18.149-18.17-6-6.01-12.071-12.09-18.149-18.19v36.36Zm21.369-18.21,18.145,18.17v-36.35C505.9,3227.13,499.823,3233.22,493.847,3239.2Zm-19.819,19.82h36.433q-9.162-9.165-18.225-18.23Q483.194,3249.85,474.028,3259.02Zm29.647-56.03c2,1.66,4,3.31,6,4.98a0.957,0.957,0,0,1,.006,1.63q-2.788,2.355-5.6,4.68a0.971,0.971,0,1,1-1.221-1.49c1.151-.97,2.312-1.93,3.55-2.97H478.09c0.784,0.66,1.509,1.27,2.236,1.88,0.447,0.38.906,0.74,1.343,1.13a0.978,0.978,0,0,1,.194,1.4,0.962,0.962,0,0,1-1.413.08q-2.857-2.355-5.69-4.75a0.929,0.929,0,0,1,0-1.55q3.009-2.52,6.038-5.02h0.679c0.834,0.71.823,1.25-.035,1.96-0.524.43-1.045,0.86-1.564,1.3-0.583.49-1.163,0.98-1.845,1.56H506.4c-0.2-.2-0.327-0.33-0.463-0.44-0.968-.81-1.934-1.63-2.908-2.43-0.856-.71-0.872-1.23-0.038-1.95h0.68ZM456,3227.8c1.659-1.99,3.313-4,4.981-5.99a0.984,0.984,0,0,1,1.643,0q2.351,2.8,4.671,5.61a0.982,0.982,0,0,1-.072,1.46,1,1,0,0,1-1.435-.26c-0.971-1.15-1.931-2.31-2.965-3.55v28.36c0.862-1.04,1.663-2,2.466-2.96,0.193-.23.379-0.47,0.584-0.69a0.97,0.97,0,0,1,1.364-.14,0.943,0.943,0,0,1,.108,1.36c-0.776.98-1.582,1.92-2.377,2.88q-1.12,1.35-2.245,2.7a1.03,1.03,0,0,1-1.851-.02c-1.625-1.95-3.248-3.91-4.872-5.86v-0.68c0.712-.84,1.251-0.83,1.958.03,0.635,0.78,1.278,1.54,1.92,2.31,0.282,0.34.571,0.67,0.917,1.07v-28.38c-1,1.2-1.924,2.29-2.836,3.4-0.709.85-1.245,0.87-1.959,0.03v-0.68Zm57.975-13.82a2.83,2.83,0,0,1-.731.55,0.923,0.923,0,0,1-1.192-1.02c-0.008-1.7,0-3.4,0-5.09,0-1.38.023-2.76-.011-4.13a1.276,1.276,0,0,1,.69-1.3h1.246v10.99ZM456,3259.76a1.3,1.3,0,0,1,1.3-.69q4.494,0.03,8.988.01a1.029,1.029,0,0,1,.7,1.93H456v-1.25Zm15.739-56.77a1.292,1.292,0,0,1,.691,1.3c-0.023,3.06-.009,6.11-0.012,9.17a0.969,0.969,0,1,1-1.92,0c0-2.85,0-5.69,0-8.54a5.3,5.3,0,0,0,0-.63,1.221,1.221,0,0,1,.681-1.3h0.566ZM456,3218.17a1.332,1.332,0,0,1,1.305-.69c3,0.03,6,.01,8.994.01,0.113,0,.227,0,0.34.01a0.928,0.928,0,0,1,.932.99,0.9,0.9,0,0,1-.937.92c-3.224.01-6.449,0.03-9.673-.02a2.453,2.453,0,0,1-.961-0.65v-0.57Z" transform="translate(-456 -3203)"/>
</svg>
