<svg xmlns="http://www.w3.org/2000/svg" width="61" height="60.97" viewBox="0 0 61 60.97">
  <defs>
    <style>
      .cls-1 {
        fill: #fff;
        fill-rule: evenodd;
      }
    </style>
  </defs>
  <path class="cls-1" d="M453.988,3384.88c0.18-.85.3-1.72,0.549-2.55a13.456,13.456,0,0,1,7.463-8.65c0.156-.07.313-0.15,0.524-0.24a9.525,9.525,0,0,1-4.377-8.3,9.117,9.117,0,0,1,2.839-6.55,9.449,9.449,0,0,1,13.465.27,9.613,9.613,0,0,1-1.773,14.58c0.472,0.24.931,0.45,1.377,0.69a1.2,1.2,0,1,1-1.117,2.1,11.232,11.232,0,0,0-16.561,9.75c-0.046,1.27-.007,2.55-0.007,3.91H471.2a1.242,1.242,0,0,1,1.361.82,1.2,1.2,0,0,1-1.042,1.56,4.786,4.786,0,0,1-.536.01c-5.124,0-10.247-.01-15.37.01a1.69,1.69,0,0,1-1.627-.84v-6.57Zm13.616-26.6a7.086,7.086,0,1,0,7.037,7.07A7.063,7.063,0,0,0,467.6,3358.28ZM515,3391.45a1.687,1.687,0,0,1-1.625.84c-5.143-.02-10.286-0.01-15.429-0.01a2.419,2.419,0,0,1-.76-0.09,1.177,1.177,0,0,1,.3-2.29c0.555-.02,1.112-0.01,1.668-0.01h13.392c0.349-4.42.061-8.6-3.383-11.9a11.247,11.247,0,0,0-12.794-1.93c-0.194.1-.38,0.22-0.582,0.3a1.187,1.187,0,0,1-1.522-.56,1.151,1.151,0,0,1,.466-1.55c0.5-.29,1.021-0.53,1.606-0.82a9.472,9.472,0,0,1-4.294-9.28,9.1,9.1,0,0,1,3.653-6.33,9.444,9.444,0,0,1,13.182,1.75,9.555,9.555,0,0,1-2.395,13.85c0.13,0.07.233,0.14,0.344,0.19a13.442,13.442,0,0,1,8.073,11,1.289,1.289,0,0,0,.1.27v6.57Zm-20.653-26.11a7.063,7.063,0,1,0,7.1-7.06A7.136,7.136,0,0,0,494.345,3365.34Zm-14.9,22.83a9.482,9.482,0,1,1,10.12.02,13.574,13.574,0,0,1,4.87,3.37,13.387,13.387,0,0,1,3.635,9.02c0.035,1.67.01,3.35,0.007,5.02a1.194,1.194,0,0,1-1.365,1.4H472.284a1.188,1.188,0,0,1-1.372-1.39,61.857,61.857,0,0,1,.137-6.38,13.183,13.183,0,0,1,7.757-10.76C479,3388.37,479.2,3388.29,479.444,3388.17Zm16.327,16.41a44.011,44.011,0,0,0-.266-5.66,11.16,11.16,0,0,0-21.941-.37,45.723,45.723,0,0,0-.272,5.64,2.363,2.363,0,0,0,.049.39h22.43ZM484.5,3387.17a7.005,7.005,0,0,0,7.06-7.05,7.065,7.065,0,1,0-14.129.01A7.007,7.007,0,0,0,484.5,3387.17Zm-0.006-22.22a9.465,9.465,0,1,1,9.439-9.36A9.4,9.4,0,0,1,484.492,3364.95Zm7.059-9.46a7.058,7.058,0,1,0-7.061,7.08A7.039,7.039,0,0,0,491.551,3355.49Z" transform="translate(-454 -3346.03)"/>
</svg>
