<svg xmlns="http://www.w3.org/2000/svg" width="46.969" height="47" viewBox="0 0 46.969 47">
  <defs>
    <style>
      .cls-1 {
        fill: #fff;
        fill-rule: evenodd;
      }
    </style>
  </defs>
  <path class="cls-1" d="M204.22,3257.01a1.777,1.777,0,0,1-1.022-1.85q0.037-9.72.007-19.46a1.751,1.751,0,0,1,.707-1.5q8.128-6.3,16.241-12.63a1.384,1.384,0,0,1,1.956.04q6.6,5.145,13.2,10.28c0.976,0.76,1.965,1.5,2.922,2.29a6.083,6.083,0,0,1,.757.88V3256a2.15,2.15,0,0,1-1.009,1.01H204.22Zm10-2.77v-0.59q0-6.24,0-12.49a1.414,1.414,0,0,1,1.6-1.6h10.547a1.416,1.416,0,0,1,1.607,1.6v13.06h8.246c0.006-.11.013-0.18,0.013-0.26q0-8.76-.011-17.53a0.808,0.808,0,0,0-.291-0.55q-5.283-4.14-10.587-8.26c-1.409-1.1-2.819-2.19-4.237-3.29a1.7,1.7,0,0,0-.2.14q-7.27,5.655-14.545,11.31a0.929,0.929,0,0,0-.414.83q0.023,8.535.01,17.08v0.55h8.26Zm2.77-.02h8.2v-11.88h-8.2v11.88Zm-24.973-32.02a1.718,1.718,0,0,1,1.845-1.02c1.022,0.05,2.048.01,3.072,0.02a1.381,1.381,0,0,1,1.5,1.38,1.4,1.4,0,0,1-1.515,1.37H194.8v2.76h4.041a1.337,1.337,0,0,1,1.23.66,1.362,1.362,0,0,1-1.191,2.08c-1.345.02-2.689,0.01-4.07,0.01v2.76c0.747,0,1.5-.01,2.262,0a1.31,1.31,0,0,1,1.237.8,1.279,1.279,0,0,1-.2,1.45,1.335,1.335,0,0,1-1.085.5H194.8v2.76c1.292,0,2.571-.01,3.851,0a2.479,2.479,0,0,1,.546.03,1.4,1.4,0,0,1,1.073,1.5,1.377,1.377,0,0,1-1.387,1.21c-1.208.01-2.415,0.01-3.623,0.01H194.79v2.76c0.757,0,1.515-.02,2.272,0a1.36,1.36,0,0,1,1.2,2.02,1.34,1.34,0,0,1-1.238.73H194.8v2.76h1.642c0.795,0,1.59-.01,2.385,0a1.377,1.377,0,1,1,.013,2.75h-4.047v2.76a20.492,20.492,0,0,1,2.217.02,1.855,1.855,0,0,1,1.077.48,1.315,1.315,0,0,1-.355,2.07l-0.3.18h-4.4a2.141,2.141,0,0,1-1.009-1.01v-33.8Zm46.973-6.79c-0.055.09-.113,0.17-0.162,0.26a1.367,1.367,0,0,1-2.586-.63c-0.011-.75,0-1.5,0-2.27h-2.756v0.47c0,1.18,0,2.35,0,3.53a1.378,1.378,0,1,1-2.747-.01c0-1.32,0-2.63,0-3.98H227.98c0,0.69,0,1.39,0,2.09a1.385,1.385,0,1,1-2.748-.01c0-.69,0-1.37,0-2.09h-2.756c0,1.28,0,2.55,0,3.81a2.713,2.713,0,0,1-.038.6,1.369,1.369,0,0,1-2.707-.32c-0.009-1.35,0-2.7,0-4.08H216.97c0,0.75.011,1.51,0,2.26a1.317,1.317,0,0,1-.8,1.24,1.278,1.278,0,0,1-1.453-.19,1.346,1.346,0,0,1-.5-1.09c0-.73,0-1.46,0-2.23h-2.755v2.16c0,0.64.008,1.28,0,1.92a1.372,1.372,0,1,1-2.744.01c-0.011-1.21,0-2.42,0-3.62v-0.47h-2.756c0,0.75.01,1.51,0,2.27a1.323,1.323,0,0,1-.793,1.24,1.186,1.186,0,0,1-1.439-.2,1.806,1.806,0,0,1-.491-1.03c-0.059-1.22-.023-2.45-0.022-3.67a1.544,1.544,0,0,1,1.007-1.39h33.762a2.141,2.141,0,0,1,1.009,1.01v4.41Z" transform="translate(-192.031 -3210)"/>
</svg>
