<svg xmlns="http://www.w3.org/2000/svg" width="52" height="33" viewBox="0 0 52 33">
  <defs>
    <style>
      .cls-1 {
        fill: #fff;
        fill-rule: evenodd;
      }
    </style>
  </defs>
  <path class="cls-1" d="M196.478,4124.81a19.559,19.559,0,0,1,2.134-2.5,6.9,6.9,0,0,1,10.427,1.8c2.467,4.1,4.89,8.23,7.332,12.34,0.459,0.78.924,1.55,1.372,2.33a1.308,1.308,0,0,1-1.233,2.09H167.462a1.3,1.3,0,0,1-1.222-2.06c4.447-7.51,8.868-15.04,13.371-22.51a6.9,6.9,0,0,1,11.783,0c1.632,2.65,3.178,5.34,4.764,8.01C196.279,4124.51,196.412,4124.71,196.478,4124.81Zm-26.845,13.42c0.2,0.02.32,0.04,0.435,0.04,6.054,0,12.107-.01,18.16.01a0.715,0.715,0,0,0,.7-0.45q2.921-4.935,5.859-9.86a0.764,0.764,0,0,0-.012-0.91c-1.823-3.04-3.625-6.09-5.439-9.14a4.31,4.31,0,0,0-7.675.01q-5.846,9.84-11.683,19.69C169.866,4137.8,169.767,4137.99,169.633,4138.23Zm44.729,0.01c-0.126-.24-0.2-0.39-0.292-0.54q-3.6-6.075-7.2-12.14a4.309,4.309,0,0,0-7.646.02q-3.591,6.045-7.175,12.09c-0.1.17-.183,0.35-0.3,0.57h22.618Zm-5.509,7.75c-2.476,0-4.953.01-7.43,0a1.373,1.373,0,0,1-1.616-1.18,1.293,1.293,0,0,1,1.438-1.4q3.411-.015,6.822-0.01h8.344a1.34,1.34,0,0,1,1.589,1.26,1.355,1.355,0,0,1-1.594,1.33C213.888,4146,211.371,4145.99,208.853,4145.99ZM184.2,4124.23a1.3,1.3,0,1,1-1.314-1.29A1.309,1.309,0,0,1,184.2,4124.23Zm2.6,7.66a1.3,1.3,0,1,1-1.329-1.28A1.3,1.3,0,0,1,186.792,4131.89Zm-9.086,1.3a1.27,1.27,0,1,1-1.306,1.28A1.257,1.257,0,0,1,177.706,4133.19Zm24.689-3.83a1.3,1.3,0,1,1-1.3-1.29A1.28,1.28,0,0,1,202.4,4129.36Zm3.894,6.37a1.271,1.271,0,1,1,1.311-1.27A1.258,1.258,0,0,1,206.289,4135.73Z" transform="translate(-166 -4113)"/>
</svg>
