<svg xmlns="http://www.w3.org/2000/svg" width="46" height="48" viewBox="0 0 46 48">
  <defs>
    <style>
      .cls-1 {
        fill: #fff;
        fill-rule: evenodd;
      }
    </style>
  </defs>
  <path class="cls-1" d="M165.86,3980a1.381,1.381,0,0,1-.858-1.44q0.024-9.495.01-18.99a1.193,1.193,0,0,1,1.413-1.42c1.141,0,2.283.02,3.423-.01a1.536,1.536,0,0,0,.806-0.26q5.448-3.855,10.875-7.74a1.334,1.334,0,0,1,1.343-.32,1.084,1.084,0,0,1,.42,1.74,2.883,2.883,0,0,1-.459.4q-4.093,2.88-8.19,5.78c-0.112.07-.22,0.16-0.4,0.29H201.7a3.139,3.139,0,0,0-.3-0.25q-4.134-2.91-8.269-5.83a1.183,1.183,0,0,1-.619-1.54,1.072,1.072,0,0,1,1.439-.57,3.657,3.657,0,0,1,.6.37q5.418,3.855,10.838,7.71a1.33,1.33,0,0,0,.727.22c1.188,0.03,2.377.01,3.565,0.01a1.154,1.154,0,0,1,1.315,1.33q0,9.54.01,19.08a1.38,1.38,0,0,1-.859,1.44H165.86Zm1.4-2.27h41.464v-17.3H167.264v17.3Zm29.649-45.74a1.29,1.29,0,0,1,.941,1.43c-0.022.82-.013,1.65,0,2.48a1.557,1.557,0,0,1-.47,1.18c-1.628,1.59-3.241,3.21-4.9,4.78a1.891,1.891,0,0,1-1.087.42c-0.728.07-1.466,0.02-2.276,0.02v1.63a1.225,1.225,0,0,1-1.073,1.49,2.239,2.239,0,0,0-1.14,3.57,1.623,1.623,0,0,0,2.28.42,2.177,2.177,0,0,0,1.07-1.72,2.218,2.218,0,0,1,.181-0.72,1.069,1.069,0,0,1,1.232-.53,1.118,1.118,0,0,1,.828,1.06,4.606,4.606,0,0,1-3.637,4.39,4.389,4.389,0,0,1-4.837-3.98,4.477,4.477,0,0,1,2.545-4.4c0.631-.27.267-0.76,0.371-1.21-0.8,0-1.549-.02-2.293.01a1.512,1.512,0,0,1-1.17-.48q-2.361-2.385-4.737-4.74a1.629,1.629,0,0,1-.5-1.26c0.021-.78.033-1.56,0-2.34a1.405,1.405,0,0,1,.851-1.5h17.825Zm-16.427,2.26a7.291,7.291,0,0,1-.006.83,1.129,1.129,0,0,0,.412,1.02c1.248,1.23,2.461,2.49,3.708,3.72a1.085,1.085,0,0,0,.679.29c1.827,0.03,3.655.02,5.482,0a1.023,1.023,0,0,0,.644-0.26c1.219-1.19,2.367-2.46,3.638-3.58a2.221,2.221,0,0,0,.545-2.02h-15.1Zm-9.183,34.82c0-1.01-.009-2.03,0-3.04a1.093,1.093,0,0,1,.815-1.12,1.059,1.059,0,0,1,1.262.54,1.8,1.8,0,0,1,.15.72c0.012,1.91.01,3.81,0.006,5.72a1.178,1.178,0,0,1-.989,1.36,1.094,1.094,0,0,1-1.245-1.18C171.294,3971.07,171.3,3970.07,171.3,3969.07Zm27.2,0.01c0,0.98.007,1.97,0,2.95a1.152,1.152,0,0,1-.671,1.14,0.933,0.933,0,0,1-1.13-.17,1.578,1.578,0,0,1-.421-0.93c-0.037-2-.028-4-0.014-6a1.123,1.123,0,0,1,1.146-1.21,1.146,1.146,0,0,1,1.091,1.27C198.508,3967.11,198.5,3968.09,198.5,3969.08Zm6.194-.03c0,1.01.008,2.03,0,3.04a1.125,1.125,0,0,1-.8,1.14,1.061,1.061,0,0,1-1.242-.51,1.926,1.926,0,0,1-.182-0.81c-0.015-1.9-.011-3.81-0.006-5.71a1.224,1.224,0,0,1,.63-1.22,1.065,1.065,0,0,1,1.147.1,1.148,1.148,0,0,1,.46,1.02C204.7,3967.08,204.7,3968.07,204.7,3969.05Zm-27.114-.02c0-.97,0-1.94,0-2.91a1.123,1.123,0,0,1,1.089-1.26,1.152,1.152,0,0,1,1.142,1.27c0.009,1.93,0,3.87,0,5.81a1.222,1.222,0,0,1-.633,1.21,0.934,0.934,0,0,1-1.134-.12,1.687,1.687,0,0,1-.445-0.96C177.547,3971.06,177.583,3970.04,177.583,3969.03Zm14.672,0.04c0,1.01,0,2.03,0,3.04a1.066,1.066,0,0,1-.646,1.05,0.938,0.938,0,0,1-1.095-.12,1.364,1.364,0,0,1-.437-0.82c-0.037-2.09-.033-4.18-0.016-6.28a1.072,1.072,0,0,1,1.11-1.08,1.089,1.089,0,0,1,1.083,1.12c0.022,1.03.006,2.06,0.006,3.09h0Zm-6.22-.03c0,1.06.015,2.12-.006,3.18a1.042,1.042,0,0,1-.862,1.02,1.058,1.058,0,0,1-1.2-.59,1.788,1.788,0,0,1-.13-0.68c-0.009-1.93-.011-3.87,0-5.8a1.182,1.182,0,0,1,.773-1.26,1.094,1.094,0,0,1,1.435,1.08c0.016,1.02,0,2.03,0,3.05h-0.008Z" transform="translate(-165 -3932)"/>
</svg>
