<svg xmlns="http://www.w3.org/2000/svg" width="57.876" height="57.38" viewBox="0 0 57.876 57.38">
  <defs>
    <style>
      .cls-1 {
        fill: #fff;
        fill-rule: evenodd;
      }
    </style>
  </defs>
  <path class="cls-1" d="M190.07,3376.34a1.445,1.445,0,0,1,1.347-.59q27.584,0.015,55.165,0a1.447,1.447,0,0,1,1.348.59v2.08c-0.037.2-.076,0.41-0.11,0.61-0.258,1.57-.405,3.17-0.793,4.71a28.771,28.771,0,0,1-22.945,21.17c-1.1.19-2.221,0.31-3.332,0.46h-3.5c-0.189-.03-0.377-0.07-0.567-0.1-1.6-.26-3.236-0.4-4.807-0.79a28.314,28.314,0,0,1-15.135-9.48,27.685,27.685,0,0,1-6.213-13.28c-0.184-1.06-.307-2.12-0.458-3.18v-2.2Zm1.913,1.27a27.015,27.015,0,0,0,46.7,17.38c-0.313-.04-0.613-0.08-0.91-0.13a2.318,2.318,0,0,1-2.071-3.03,28.376,28.376,0,0,0,.416-3.77,26.229,26.229,0,0,0-.11-3.35,25.828,25.828,0,0,0-.431-3.02,1.468,1.468,0,0,0-1.451-1.2c-0.7-.05-1.4-0.11-2.092-0.1a6.463,6.463,0,0,1-5.49-2.51,0.889,0.889,0,0,0-.637-0.26c-1.885-.02-3.771-0.01-5.657-0.01H219a1.317,1.317,0,0,0,.489.34,14.064,14.064,0,0,1,3.781,2.36,3.5,3.5,0,0,1,1.3,3.23,15.487,15.487,0,0,1-.518,2.24,13.393,13.393,0,0,1-2.986,4.64,8.778,8.778,0,0,0-2.5,4.85,10.572,10.572,0,0,1-.289,1.59,7.005,7.005,0,0,1-1.951,3.73,2.113,2.113,0,0,1-3.117-.11,5.3,5.3,0,0,1-1.185-1.83,48.8,48.8,0,0,1-1.41-5.09c-0.561-2.61-1.336-5.01-3.875-6.47a3.605,3.605,0,0,1-1.725-2.58c-0.236-1.38-.351-2.78-0.475-4.18a3.593,3.593,0,0,0-.847-2.33,1.255,1.255,0,0,0-.828-0.37c-2.021-.04-4.043-0.02-6.065-0.02h-4.823Zm13.789-.01a6.475,6.475,0,0,1,.39,1.18c0.146,1.22.255,2.44,0.349,3.67a4.259,4.259,0,0,0,2.056,3.72,6.2,6.2,0,0,1,2.838,3.54c0.514,1.59.89,3.22,1.285,4.84a13.011,13.011,0,0,0,1.515,4.27c0.463,0.69.776,0.69,1.255,0.01a7.271,7.271,0,0,0,1.2-3.4,9.654,9.654,0,0,1,2.06-5.06c0.438-.55.883-1.08,1.334-1.61a11.3,11.3,0,0,0,2.522-4.43,2.641,2.641,0,0,0-1.169-3.18,21.565,21.565,0,0,0-5.547-2.61,9.364,9.364,0,0,0-4.834-.62,5.106,5.106,0,0,1-2.519-.03A10.445,10.445,0,0,0,205.772,3377.6Zm40.274,0.06H229.083c-0.014.05-.027,0.09-0.041,0.14a4.442,4.442,0,0,0,1.143.49c1.074,0.13,2.159.21,3.242,0.25,2.452,0.1,3.836,1.06,4.145,3.45a28.237,28.237,0,0,1,0,10.1c-0.08.34-.3,0.75,0.311,0.92a3.609,3.609,0,0,0,3.441-1.17A26.56,26.56,0,0,0,246.046,3377.66Zm1.884-6.3a2.429,2.429,0,0,1-2.693,1.63c-0.559-.04-1.125-0.01-1.687-0.01a3.278,3.278,0,0,1-3.126,2.3,3.066,3.066,0,0,1-3-1.89,0.623,0.623,0,0,0-.705-0.42,0.614,0.614,0,0,0-.662.39,3.069,3.069,0,0,1-2.986,1.92,3.209,3.209,0,0,1-3-1.93,0.628,0.628,0,0,0-.418-0.35c-3.886-.02-7.773-0.02-11.659-0.02a3.278,3.278,0,0,1-3.127,2.3,3.038,3.038,0,0,1-2.951-1.79,0.738,0.738,0,0,0-.873-0.51c-0.134.01-.272,0-0.408,0a1.834,1.834,0,0,1-1.884-1.87c-0.02-2.2-.017-4.39,0-6.59a2.884,2.884,0,0,1,.249-1.06c0.7-1.68,1.449-3.35,2.153-5.04a2.459,2.459,0,0,1,2.48-1.64c1.905,0.01,3.81,0,5.715,0h0.7c0-.54,0-1.03,0-1.53a2.064,2.064,0,0,1,2.184-2.18c7.833-.01,15.667,0,23.5-0.01a2.2,2.2,0,0,1,2.19,1.65v16.65Zm-18.017-.25c0.044-.09.083-0.15,0.114-0.22a3.156,3.156,0,0,1,2.955-2.07,3.113,3.113,0,0,1,3.117,1.99,0.784,0.784,0,0,0,1.278-.02,3.231,3.231,0,0,1,3.927-1.85,3.342,3.342,0,0,1,2.246,2.19c0.612,0,1.216-.04,1.814.01,0.58,0.04.714-.18,0.712-0.73q-0.027-7.395,0-14.8a0.582,0.582,0,0,0-.715-0.72q-11.371.03-22.743,0a0.585,0.585,0,0,0-.712.73c0.019,4.95.011,9.91,0.011,14.86v0.63h8Zm-9.885-12.48c-2.124,0-4.2.02-6.274-.01a0.854,0.854,0,0,0-.922.6c-0.662,1.6-1.359,3.18-2.02,4.78a2.6,2.6,0,0,0-.191.95c-0.017,1.84-.008,3.69-0.008,5.54v0.68c0.46-.17.924,0.24,1.2-0.36a3.1,3.1,0,0,1,3-1.99,3.162,3.162,0,0,1,3.052,2.01,0.523,0.523,0,0,0,.351.28c0.594,0.03,1.191.02,1.811,0.02v-12.5Zm20.335,12.03a1.422,1.422,0,0,0-1.4,1.41,1.444,1.444,0,0,0,1.435,1.38,1.381,1.381,0,0,0,1.372-1.42A1.355,1.355,0,0,0,240.363,3370.66Zm-8.667,1.36a1.387,1.387,0,0,0,1.363,1.43,1.459,1.459,0,0,0,1.444-1.38,1.426,1.426,0,0,0-1.39-1.41A1.354,1.354,0,0,0,231.7,3372.02Zm-16.87-1.36a1.425,1.425,0,0,0-1.414,1.39,1.445,1.445,0,0,0,1.418,1.4,1.381,1.381,0,0,0,1.388-1.4A1.354,1.354,0,0,0,214.826,3370.66Zm-24.756-10.17a23.431,23.431,0,0,1,.718-2.41,8.912,8.912,0,0,1,17,2.15,9.268,9.268,0,0,1-1.354,5.96,38.371,38.371,0,0,1-4.845,6.41c-0.622.72-1.241,1.43-1.883,2.13a0.909,0.909,0,0,1-1.466.02c-2.027-2.46-4.082-4.9-6.024-7.42a11.968,11.968,0,0,1-2.147-4.99v-1.85Zm8.907,12.29c0.989-1.15,1.942-2.22,2.853-3.32a22.988,22.988,0,0,0,3.569-5.38,6.353,6.353,0,0,0-.968-6.93,6.712,6.712,0,0,0-6.574-2.52,6.843,6.843,0,0,0-5.2,9.74C194.234,3367.54,196.65,3370.07,198.977,3372.78Zm18.74-24.78c0.688,0.62.731,0.87,0.233,1.76h17.664a2.668,2.668,0,0,1,.747.08,0.9,0.9,0,0,1-.17,1.75c-0.211.02-.427,0.01-0.64,0.01q-8.484.015-16.966,0.01h-0.706a4.25,4.25,0,0,1,.28.39,0.851,0.851,0,0,1-.153,1.11,0.831,0.831,0,0,1-1.113.14c-0.848-.61-1.686-1.24-2.477-1.92a0.9,0.9,0,0,1,.188-1.45c0.8-.63,1.608-1.25,2.413-1.88h0.7Zm11.806,13.88c0,1.58.012,3.16,0,4.74a0.885,0.885,0,0,1-1.376.84,1.216,1.216,0,0,1-.46-0.86c-0.032-3.17-.028-6.35-0.012-9.52a0.931,0.931,0,1,1,1.851.07C229.529,3358.73,229.524,3360.31,229.523,3361.88Zm10.807-.01c0,1.5.009,3-.008,4.5a1.779,1.779,0,0,1-.186.83,0.825,0.825,0,0,1-1,.37,0.914,0.914,0,0,1-.667-1.02q0.007-4.7,0-9.41c0-.05,0-0.11,0-0.17a0.843,0.843,0,0,1,.824-0.87,0.855,0.855,0,0,1,.984.7,2.205,2.205,0,0,1,.049.57C240.332,3358.87,240.33,3360.37,240.33,3361.87Zm-7.21-.05c0,1.55,0,3.11,0,4.67a0.971,0.971,0,0,1-.893,1.13,0.987,0.987,0,0,1-.968-1.13c-0.005-3.1-.005-6.19,0-9.29a0.94,0.94,0,0,1,.967-1.11,0.925,0.925,0,0,1,.894,1.11C233.123,3358.74,233.12,3360.28,233.12,3361.82Zm3.607,0c0,1.6,0,3.19,0,4.79a0.9,0.9,0,0,1-.8.98,0.843,0.843,0,0,1-.981-0.54,1.256,1.256,0,0,1-.08-0.5q-0.006-4.71,0-9.42a0.9,0.9,0,0,1,.9-1.04,0.916,0.916,0,0,1,.959,1.05C236.733,3358.7,236.727,3360.26,236.727,3361.82Zm-10.772.03c0,1.5.01,3-.009,4.51a1.319,1.319,0,0,1-.214.86,1.429,1.429,0,0,1-.957.33,0.763,0.763,0,0,1-.674-0.87c-0.009-1.22-.008-2.43-0.008-3.65,0-1.98-.007-3.97.007-5.95a0.885,0.885,0,0,1,.9-0.99,0.916,0.916,0,0,1,.948.96c0.013,0.15.007,0.3,0.007,0.46v4.34Zm16.094-.01c0-1.56-.009-3.13,0-4.69a0.906,0.906,0,0,1,.947-1.06,0.828,0.828,0,0,1,.847.66,2.577,2.577,0,0,1,.061.68q0.006,4.4,0,8.79c0,0.95-.3,1.4-0.931,1.4s-0.93-.44-0.931-1.39C242.047,3364.77,242.048,3363.3,242.049,3361.84Zm-26.607,3.37c-0.952,0-1.9.01-2.856,0a0.985,0.985,0,0,1-1.022-1.53c0.554-1.31,1.135-2.6,1.678-3.92a1.105,1.105,0,0,1,1.151-.77c1.3,0.01,2.6,0,3.9,0a1,1,0,0,1,1.14,1.14q0.018,1.965,0,3.93a1.015,1.015,0,0,1-1.2,1.15C217.306,3365.22,216.374,3365.21,215.442,3365.21Zm2.132-4.37c-0.885,0-1.7-.01-2.507.01a0.451,0.451,0,0,0-.346.22c-0.331.73-.635,1.47-0.981,2.29,1.242,0,2.4,0,3.556-.02a0.438,0.438,0,0,0,.266-0.33C217.587,3362.32,217.574,3361.63,217.574,3360.84Zm22.832,10.42a0.788,0.788,0,0,1,.758.84,0.811,0.811,0,0,1-.8.74,0.794,0.794,0,0,1-.757-0.85A0.774,0.774,0,0,1,240.406,3371.26Zm-8.106.79a0.788,0.788,0,0,1,1.575-.01A0.788,0.788,0,1,1,232.3,3372.05Zm-16.686.02a0.788,0.788,0,1,1-1.576-.04A0.788,0.788,0,1,1,215.614,3372.07Zm-16.658-16.15a5.585,5.585,0,1,1,.058,11.17A5.585,5.585,0,1,1,198.956,3355.92Zm-0.006,9.32a3.735,3.735,0,1,0-3.75-3.75A3.72,3.72,0,0,0,198.95,3365.24Z" transform="translate(-190.062 -3348)"/>
</svg>
