<svg xmlns="http://www.w3.org/2000/svg" width="64.68" height="49.94" viewBox="0 0 64.68 49.94">
  <defs>
    <style>
      .cls-1 {
        fill: #fff;
        fill-rule: evenodd;
      }
    </style>
  </defs>
  <path class="cls-1" d="M1206.67,4106.68c1.04-2.31,2.1-4.62,3.14-6.93,0.44-.96.85-1.92,1.29-2.88a1.3,1.3,0,0,1,1.57-.84q7.86,1.11,15.72,2.21c0.5,0.07,1,.15,1.58.24,0.22-.5.45-1,0.68-1.51a1.322,1.322,0,0,1,1.99-.77c1.63,0.72,3.27,1.44,4.89,2.17a1.348,1.348,0,0,1,.79,2.04c-0.22.51-.42,1.01-0.68,1.5a0.738,0.738,0,0,0,.15.99c2.16,2.37,4.27,4.77,6.43,7.13a1.646,1.646,0,0,1,.31,2.05c-1.33,2.9-2.62,5.82-3.91,8.75a2.449,2.449,0,0,0-.22.96c-0.02,1.85-.01,3.7-0.01,5.59h7.1v-17.37c0-1.32.41-1.74,1.73-1.74,4.15,0,8.3-.01,12.44.01a9.5,9.5,0,0,1,9.67,9.67v19.65a1.362,1.362,0,0,1-1.64,1.63c-1.49.01-2.98,0-4.53,0a6.279,6.279,0,0,1-2.47,5.44,5.964,5.964,0,0,1-4,1.26,6.275,6.275,0,0,1-6.01-6.64h-12.53a6.256,6.256,0,0,1-2.42,5.33,5.947,5.947,0,0,1-3.92,1.32,6.114,6.114,0,0,1-4.48-2.02c-1.01-1.1-1.26-1.79-1.73-4.65h-2.47a6.191,6.191,0,0,1-2.19,5.17,5.982,5.982,0,0,1-4.05,1.5,6.334,6.334,0,0,1-6.25-6.71c-1.04,0-2.08-.02-3.13.01-1.53.04-2.3-.03-2.23-2.19,0.07-2.7.01-5.4,0.02-8.09a1.315,1.315,0,0,1,1.53-1.54c1.56-.01,3.11,0,4.77,0v-0.69c0-4.19-.01-8.38.02-12.57a1.318,1.318,0,0,0-.54-1.12q-2.76-2.265-5.47-4.58c-0.33-.28-0.63-0.59-0.94-0.89v-0.89Zm43.44,4.19v25.79c1.07,0,2.1.01,3.13-.02a0.735,0.735,0,0,0,.47-0.32,6.214,6.214,0,0,1,10.43-.01,0.709,0.709,0,0,0,.41.33c1.4,0.02,2.81.01,4.22,0.01v-5.96h-0.71c-1.05,0-2.11.01-3.16-.01a1.249,1.249,0,0,1-1.26-1.29,1.236,1.236,0,0,1,1.26-1.23c0.84-.02,1.68,0,2.52-0.01h1.36v-3.31h-11c-1.27,0-1.71-.45-1.72-1.7v-12.27h-5.95Zm-2.65,19.14h-37.6v6.65c1.14,0,2.25.01,3.36-.02a0.831,0.831,0,0,0,.5-0.38,6.246,6.246,0,0,1,10.38-.01,1.087,1.087,0,0,0,.75.39c1.01,0.04,2.02,0,3.03.03a0.96,0.96,0,0,0,.92-0.47,6.18,6.18,0,0,1,10.26.04,0.866,0.866,0,0,0,.82.43c2.18-.02,4.37-0.01,6.56-0.01h1.02v-6.65Zm-25.75-13.05c2.41-5.38,4.79-10.7,7.18-16.06-5.14-.73-10.21-1.45-15.28-2.18a0.616,0.616,0,0,0-.76.45c-1.02,2.32-2.05,4.65-3.12,6.95a0.745,0.745,0,0,0,.27,1.05c2.59,2.15,5.16,4.32,7.74,6.48C1219.04,4114.74,1220.35,4115.82,1221.71,4116.96Zm16.12,5.29h-7.15a4.214,4.214,0,0,0-2.03.1,4.638,4.638,0,0,0-.97,1.85l-0.03.06a1.34,1.34,0,0,1-2.07.8q-2.415-1.065-4.83-2.15a1.348,1.348,0,0,1-.8-2.04,2.99,2.99,0,0,0,.55-1.43,3.042,3.042,0,0,0-1.14-1.11c-1.03-.88-2.08-1.74-3.2-2.68v11.73h21.67v-5.13Zm30.89-.03c0-1.79.1-3.55-.03-5.3a6.464,6.464,0,0,0-2.77-4.75c-2.2-1.69-4.75-1.32-7.27-1.31v11.36h10.07Zm-39.03-2.51c2.87,0,5.6.01,8.34-.02a0.656,0.656,0,0,0,.45-0.4c1.13-2.48,2.23-4.98,3.36-7.47a0.583,0.583,0,0,0-.12-0.76c-0.56-.58-1.07-1.19-1.61-1.79-1.26-1.4-2.53-2.81-3.84-4.27C1234.07,4109.91,1231.91,4114.75,1229.69,4119.71Zm-3.97,2.63c3.29-7.36,6.56-14.68,9.86-22.04-1.03-.46-2.01-0.89-3.03-1.34-3.3,7.37-6.56,14.69-9.85,22.03C1223.72,4121.44,1224.68,4121.87,1225.72,4122.34Zm-6.78,21.03a3.639,3.639,0,0,0,3.65-3.71,3.675,3.675,0,1,0-7.35.12A3.637,3.637,0,0,0,1218.94,4143.37Zm14.99,0a3.665,3.665,0,1,0-3.68-3.61A3.624,3.624,0,0,0,1233.93,4143.37Zm25.02,0a3.673,3.673,0,0,0,3.67-3.64,3.715,3.715,0,0,0-3.7-3.69,3.667,3.667,0,0,0-3.65,3.72A3.618,3.618,0,0,0,1258.95,4143.37Z" transform="translate(-1206.66 -4096)"/>
</svg>
