<svg xmlns="http://www.w3.org/2000/svg" width="48" height="48" viewBox="0 0 48 48">
  <defs>
    <style>
      .cls-1 {
        fill: #fff;
        fill-rule: evenodd;
      }
    </style>
  </defs>
  <path class="cls-1" d="M1254.51,3816.01h-11.03a6,6,0,0,0-.61-0.06,102.892,102.892,0,0,1-13.13-.62,8.906,8.906,0,0,1-3.42-1.01,2.306,2.306,0,0,1-1.32-2.34c0.07-.74.09-1.49,0.2-2.23a19.361,19.361,0,0,1,1.92-5.47,26.189,26.189,0,0,0,2.64-11.23,1.25,1.25,0,0,0-.49-1.08c-1.36-1.18-2.23-2.6-1.76-4.48a11.705,11.705,0,0,1,2.63-4.7,2.349,2.349,0,0,1,1.11-.35,2.632,2.632,0,0,0,.71-0.15c0.78-.48,1.54-0.99,2.29-1.53a0.9,0.9,0,0,0,.32-0.62c0.03-1.18.02-2.36,0.02-3.53a1.242,1.242,0,0,1,1.08-1.41c1.27-.32,2.54-0.61,3.81-0.94a1.87,1.87,0,0,0,.8-0.45c1.69-1.65,3.34-3.33,5.03-4.99a10.212,10.212,0,0,1,1.1-.83h3.94a1.857,1.857,0,0,1,1.12,1.09c0.36,0.78.82,1.51,1.13,2.31a3.968,3.968,0,0,0,2.62,2.59,6.666,6.666,0,0,1,1,.5c2.63,1.35,1.94.58,2.91,3.36l0.57,1.62c0.68-.2,1.29-0.38,1.9-0.55a1.31,1.31,0,0,1,1.76.66c0.75,1.11,1.49,2.23,2.26,3.37,0.19-.09.35-0.17,0.52-0.25a1.3,1.3,0,0,1,2.05.48,15.34,15.34,0,0,1,1.42,2.21,9.477,9.477,0,0,1,.96,2.83c0.18,1.64-.77,2.86-1.96,3.89a0.956,0.956,0,0,0-.36.62,27,27,0,0,0,.62,5.94,33.951,33.951,0,0,0,2.59,6.9,15.467,15.467,0,0,1,1.54,6.59,2.115,2.115,0,0,1-.8,1.77,3.563,3.563,0,0,1-1.24.73,26.73,26.73,0,0,1-4.38.87c-3.18.23-6.37,0.28-9.55,0.39C1256.19,3815.95,1255.35,3815.98,1254.51,3816.01Zm-22.29-22.1c-0.2,1.52-.37,3.08-0.63,4.62a29.493,29.493,0,0,1-2.68,7.56,15.327,15.327,0,0,0-1.54,5.46,0.791,0.791,0,0,0,.67.97,14.326,14.326,0,0,0,2.02.45c2.67,0.22,5.34.52,8.02,0.54,8.96,0.06,17.93.26,26.89-.22a33.623,33.623,0,0,0,4.86-.76c0.81-.16.79-0.3,0.74-1.1a14.709,14.709,0,0,0-1.59-5.5,28.359,28.359,0,0,1-3.04-10.4c-0.05-.57-0.09-1.14-0.12-1.62A50.941,50.941,0,0,1,1232.22,3793.91Zm-0.89-8.82c-0.41.7-.81,1.32-1.14,1.98-0.68,1.36-.53,2.29.74,3.16a14.921,14.921,0,0,0,3.24,1.75,42.735,42.735,0,0,0,14.05,2.37,48.262,48.262,0,0,0,9.06-.68,27.889,27.889,0,0,0,7.85-2.24,12.8,12.8,0,0,0,2.36-1.58,1.7,1.7,0,0,0,.62-2.01c-0.39-.94-0.91-1.82-1.4-2.79C1254.87,3791.01,1243.12,3790.99,1231.33,3785.09Zm19.78-11.33c-0.26-.53-0.52-1.07-0.8-1.6a1.991,1.991,0,0,0-2.9-1.69,0.945,0.945,0,0,0-.58.24c-1.26,1.23-2.5,2.48-3.75,3.72a4.029,4.029,0,0,0-.27.39,12.417,12.417,0,0,0,2.34.37,4.3,4.3,0,0,1,3.26,1.01,0.849,0.849,0,0,0,.17.08C1249.42,3775.44,1250.24,3774.62,1251.11,3773.76Zm-8.13,5.24a3.383,3.383,0,0,0-.05-1.62,3.2,3.2,0,0,0-1.46-.61,3.37,3.37,0,0,0-.59-0.19,1.549,1.549,0,0,0-.6-0.04c-0.99.23-1.96,0.5-2.95,0.72a0.415,0.415,0,0,0-.36.51q0.015,1.095,0,2.19a0.442,0.442,0,0,0,.38.51,8.855,8.855,0,0,1,2.32.81,1.786,1.786,0,0,0,1.95-.11C1242.7,3780.74,1243.42,3780.19,1242.98,3779Zm14.39,1.13c-0.31-.94-0.59-1.81-0.89-2.66a0.683,0.683,0,0,0-.33-0.34c-1-.51-2-1.01-3.01-1.49a0.535,0.535,0,0,0-.48.02c-0.68.64-1.33,1.3-1.91,1.86a2.819,2.819,0,0,1,.58,1.13,1.246,1.246,0,0,0,.74,1.26c0.48,0.33.93,0.7,1.4,1.03a0.7,0.7,0,0,0,.5.15C1255.09,3780.8,1256.19,3780.47,1257.37,3780.13Zm-1.2,6.33c2.52-.82,4.88-1.59,7.32-2.38-0.61-.92-1.12-1.69-1.66-2.45a0.462,0.462,0,0,0-.41-0.16c-1.78.49-3.55,1-5.25,1.49v3.5Zm-7.18.8c1.57-.14,3.06-0.28,4.54-0.44a0.467,0.467,0,0,0,.27-0.37c0.03-.66.03-1.31,0.01-1.96a0.658,0.658,0,0,0-.19-0.43c-1.21-.92-2.42-1.82-3.71-2.78a5.492,5.492,0,0,0-.88,1.69C1248.91,3784.34,1248.99,3785.72,1248.99,3787.26Zm-8.42-1.23a34.829,34.829,0,0,0,6.04,1.04v-0.63c0-.97.01-1.94-0.02-2.91a0.518,0.518,0,0,0-.31-0.37,16.956,16.956,0,0,0-1.7-.57,0.862,0.862,0,0,0-.57.05c-1.05.5-2.09,1.01-3.11,1.55a0.63,0.63,0,0,0-.31.45C1240.55,3785.08,1240.57,3785.53,1240.57,3786.03Zm4.82-8.39v1.11c0,1.65,0,1.65,1.55,2.11a0.317,0.317,0,0,0,.16.04,0.58,0.58,0,0,0,.32-0.11c0.38-.53.73-1.07,1.13-1.68C1247.46,3778.67,1246.79,3777.52,1245.39,3777.64Zm-11.35,6.17c1.45,0.54,2.76,1.04,4.15,1.57,0-.7.01-1.28-0.01-1.85a0.368,0.368,0,0,0-.16-0.31c-0.63-.23-1.26-0.44-1.91-0.63a0.49,0.49,0,0,0-.36.09C1235.22,3783.02,1234.69,3783.37,1234.04,3783.81Zm15.22,17.41a4.132,4.132,0,0,0-1.49,2.98,1.289,1.289,0,0,0-.01.28c0.11,1.33-.13,1.64-1.57,2.08a15.237,15.237,0,0,1-2.3.31,3.986,3.986,0,0,0,1.01,3.21,1.305,1.305,0,0,1,.43,1.31,1.169,1.169,0,0,1-2.04.46,6.353,6.353,0,0,1-1.79-5.44,8.514,8.514,0,0,1,.29-1.42,1.226,1.226,0,0,1,1.83-.93,7.706,7.706,0,0,0,1.35.28,0.322,0.322,0,0,0,.42-0.37c0.13-2.8,1.71-4.6,4.1-5.82a1.191,1.191,0,0,1,1.89.95c0.25,1.51.51,3.02,0.77,4.52a3.537,3.537,0,0,0,.11.44c0.41,1.3.66,1.44,1.96,1.16s1.84,0.04,2.03,1.33a6.013,6.013,0,0,1-1.45,5.21,1.2,1.2,0,1,1-1.82-1.55,3.579,3.579,0,0,0,.94-2.42,0.648,0.648,0,0,0-.2-0.02,2.878,2.878,0,0,1-2.91-1.29,8.477,8.477,0,0,1-1.24-3.55C1249.45,3802.39,1249.37,3801.84,1249.26,3801.22Zm0.95,8.68c0,0.39.02,0.78-.01,1.17a1.219,1.219,0,0,1-1.2,1.24,1.2,1.2,0,0,1-1.21-1.22c-0.03-.78-0.03-1.57,0-2.35a1.205,1.205,0,1,1,2.41-.02c0.03,0.39,0,.79,0,1.18h0.01Z" transform="translate(-1225 -3768)"/>
</svg>
