<svg xmlns="http://www.w3.org/2000/svg" width="47.344" height="47.34" viewBox="0 0 47.344 47.34">
  <defs>
    <style>
      .cls-1 {
        fill: #fff;
        fill-rule: evenodd;
      }
    </style>
  </defs>
  <path class="cls-1" d="M212.146,3810.09v0.47a5.086,5.086,0,0,1-.565.7,17.9,17.9,0,0,1-1.434,1.16,6.8,6.8,0,0,1-5.088,1.3,10.306,10.306,0,0,1-2.862-.97,5.494,5.494,0,0,0-4.063-.5,20.9,20.9,0,0,0-2.677,1.22,6.887,6.887,0,0,1-5.489.48,30.024,30.024,0,0,1-2.981-1.33,4.779,4.779,0,0,0-3.841-.3c-1.1.42-2.163,0.95-3.249,1.41a6.439,6.439,0,0,1-3.393.38,12.17,12.17,0,0,1-3.517-1.19,4.6,4.6,0,0,0-3.757-.04,14.556,14.556,0,0,0-3.214,2.11h-1.2v-1.11a12.936,12.936,0,0,1,1.1-1.14,8.334,8.334,0,0,1,4.312-2.05,8.572,8.572,0,0,1,3.356.37c-0.056-.2-0.1-0.35-0.148-0.51q-2.26-7.62-4.523-15.23a1.055,1.055,0,0,1,.6-1.52c1.261-.77,2.518-1.55,3.792-2.29a0.686,0.686,0,0,0,.4-0.69c-0.014-2.39-.009-4.77-0.007-7.16a1.006,1.006,0,0,1,1.2-1.2c0.517-.01,1.034,0,1.534,0a1.231,1.231,0,0,0,.033-0.16c0-.76,0-1.51,0-2.27a1.039,1.039,0,0,1,1.265-1.27H180.3c0-.9-0.012-1.74,0-2.59a0.979,0.979,0,0,1,1.147-1.11h4.256c0-2.1.012-4.13-.007-6.16a1.164,1.164,0,0,1,.745-1.24h4.068a1.164,1.164,0,0,1,.745,1.24c-0.02,1.88-.007,3.76-0.007,5.63v0.53h3.741c1.514,0,1.667.15,1.667,1.66v2.04h2.653a1,1,0,0,1,1.183,1.17c0,0.83,0,1.65,0,2.53,0.55,0,1.054-.01,1.559,0a1.018,1.018,0,0,1,1.214,1.23c0,2.35.008,4.71-.008,7.07a0.753,0.753,0,0,0,.419.76c1.273,0.75,2.529,1.52,3.789,2.29a1.042,1.042,0,0,1,.583,1.49q-1.4,4.695-2.8,9.39c-0.607,2.05-1.21,4.09-1.816,6.14-0.055.18-.178,0.35,0.114,0.49a5.5,5.5,0,0,0,3.938.44,7.569,7.569,0,0,0,2.808-1.81C211.089,3809.25,211.542,3809.28,212.146,3810.09ZM189.4,3785.02v26.27a0.67,0.67,0,0,0,0,.23,0.478,0.478,0,0,0,.177.27,5.4,5.4,0,0,0,4.38.31,11.96,11.96,0,0,0,1.577-.76,8.21,8.21,0,0,1,6.083-.92l4.533-15.25C200.582,3791.79,195.026,3788.43,189.4,3785.02Zm-1.867.01c-5.6,3.4-11.158,6.76-16.72,10.13,0.024,0.1.038,0.18,0.059,0.25q2.315,7.785,4.644,15.57c0.13,0.43.006,1.06,0.587,1.23a7.475,7.475,0,0,0,1.5.17,1.817,1.817,0,0,0,.229-0.02,8.951,8.951,0,0,0,3.2-1.25,6.846,6.846,0,0,1,3.946-.9c0.86,0.08,1.706.31,2.556,0.47v-25.65Zm-9.206-2.61h20.283v-1.79H178.33v1.79Zm6.791,1.91h-9.553v5.79C178.75,3788.19,181.883,3786.3,185.121,3784.33Zm6.854-.01c-0.006.03-.012,0.06-0.017,0.09,3.135,1.9,6.271,3.8,9.439,5.71v-5.8h-9.422Zm2.811-7.4H182.174v1.82h12.612v-1.82Zm-5.4-7.38H187.59v5.49h1.795v-5.49Zm12.983,26.16a0.873,0.873,0,0,1-1.161.9,2.433,2.433,0,0,1-.454-0.21q-2.746-1.695-5.487-3.39a2.5,2.5,0,0,1-.369-0.27,0.879,0.879,0,0,1-.159-1.17,0.906,0.906,0,0,1,1.135-.32,2.706,2.706,0,0,1,.286.14q2.8,1.74,5.606,3.46A0.987,0.987,0,0,1,202.368,3795.7Zm-9.1-5.55a0.942,0.942,0,0,1-.893.89,0.967,0.967,0,0,1-.934-0.9,0.95,0.95,0,0,1,.935-0.94A0.98,0.98,0,0,1,193.266,3790.15Zm-18.207,5.55a3.2,3.2,0,0,1,.586-0.75q2.862-1.845,5.761-3.64a0.941,0.941,0,0,1,1.374.25,0.922,0.922,0,0,1-.388,1.3q-2.874,1.83-5.766,3.63A0.992,0.992,0,0,1,175.059,3795.7Zm10.071-6.58a1.014,1.014,0,0,1,.922.92,0.951,0.951,0,0,1-.907.92A0.92,0.92,0,0,1,185.13,3789.12Z" transform="translate(-164.812 -3767.66)"/>
</svg>
