<svg xmlns="http://www.w3.org/2000/svg" width="57.94" height="52" viewBox="0 0 57.94 52">
  <defs>
    <style>
      .cls-1 {
        fill: #fff;
        fill-rule: evenodd;
      }
    </style>
  </defs>
  <path class="cls-1" d="M1212.02,3978.47a1.537,1.537,0,0,1,1.62-.94c3.49,0.02,6.98.01,10.47,0.01h0.76a4.714,4.714,0,0,1,.08-3.89h-4.48a1.322,1.322,0,0,1-1.58-1.58v-4.13c0-1.38.35-1.74,1.7-1.76h0.42c-0.15-1.09-.29-2.14-0.44-3.19-0.47-3.33-.95-6.65-1.42-9.98l-1.26-8.85a0.4,0.4,0,0,0-.47-0.42c-0.62.02-1.25,0.04-1.87,0a1.245,1.245,0,0,1-1.27-1.64,1.211,1.211,0,0,1,1.26-.85c1.11-.01,2.23.02,3.34-0.01a1.766,1.766,0,0,0,.92-0.3c2.29-1.63,4.56-3.27,6.83-4.91,1.82-1.32,3.18-1.31,5.01.01,0.79,0.56,1.57,1.12,2.4,1.72l2.96-2.84a3.716,3.716,0,0,1,2.45-1.17,2.25,2.25,0,0,1,.9.06,1,1,0,0,0,1.21-.4c1.29-1.37,2.61-2.71,3.93-4.06a3.6,3.6,0,0,1,5.65,0q5.58,5.745,11.16,11.51a1.135,1.135,0,0,0,.93.4c1.05-.03,2.11-0.01,3.17-0.01a1.245,1.245,0,1,1,.11,2.48,17.751,17.751,0,0,1-1.93.01,0.4,0.4,0,0,0-.47.42c-0.46,3.25-.91,6.5-1.38,9.75q-0.645,4.575-1.31,9.13c-0.15,1.02-.28,2.04-0.43,3.15,0.32,0,.6-0.02.87,0a1.193,1.193,0,0,1,1.23,1.23c0.03,1.67.03,3.33,0,5a1.184,1.184,0,0,1-1.33,1.23c-1.36.01-2.72,0-4.08,0h-0.63a4.565,4.565,0,0,1,.05,3.89h0.79c3.49,0,6.98.01,10.47-.01a1.537,1.537,0,0,1,1.62.94v0.58a1.519,1.519,0,0,1-1.61.96q-27.375-.015-54.74,0a1.519,1.519,0,0,1-1.61-.96v-0.58Zm10.11-21.94h15.76a3.76,3.76,0,0,1,.67.03,1.181,1.181,0,0,1,.99,1.21,1.141,1.141,0,0,1-.95,1.18,4.762,4.762,0,0,1-.84.07h-15.27c0.34,2.43.68,4.77,1.01,7.13h35c0.34-2.38.67-4.71,1.01-7.13h-0.68c-2.02,0-4.04.03-6.06-.02a2.4,2.4,0,0,1-1.29-.43,1.049,1.049,0,0,1-.23-1.27,1.2,1.2,0,0,1,1.21-.77h7.41c0.15-1.06.29-2.06,0.44-3.08h-38.62C1221.84,3954.47,1221.97,3955.45,1222.13,3956.53Zm39.56-12.75h-41.38c0.34,2.39.68,4.74,1.01,7.09h39.36C1261.02,3948.5,1261.35,3946.18,1261.69,3943.78Zm-40.34,27.34h39.3v-2.39h-39.3v2.39Zm21.46-35.76c0.36,0.33.52,0.47,0.67,0.61,1.69,1.61,3.37,3.23,5.08,4.82a1.428,1.428,0,0,0,.88.35c3.03,0.03,6.07.02,9.1,0.02,0.16,0,.32-0.02.49-0.03a0.482,0.482,0,0,0-.04-0.15q-4.9-5.04-9.81-10.08a1.128,1.128,0,0,0-1.75.01C1245.9,3932.36,1244.39,3933.83,1242.81,3935.36Zm-10.13,42.14h16.56a11.135,11.135,0,0,1-.29-1.93,11.64,11.64,0,0,1,.33-1.9H1232.6A4.575,4.575,0,0,1,1232.68,3977.5Zm1.43-36.39h11.17c-1.64-1.56-3.19-3.06-4.77-4.54a1.1,1.1,0,0,0-1.63,0C1237.31,3938.05,1235.75,3939.55,1234.11,3941.11Zm-10.18-.08c0.02,0.04.03,0.08,0.05,0.13,2.1,0,4.21,0,6.31-.01a0.462,0.462,0,0,0,.3-0.11c0.54-.5,1.06-1.02,1.61-1.55-0.82-.58-1.58-1.13-2.35-1.68a1.084,1.084,0,0,0-1.32-.07C1226.99,3938.82,1225.46,3939.93,1223.93,3941.03Zm3.02,34.62a1.826,1.826,0,1,0,1.81-1.87A1.845,1.845,0,0,0,1226.95,3975.65Zm28.1,0.02a1.825,1.825,0,1,0-1.83,1.86A1.843,1.843,0,0,0,1255.05,3975.67Zm-8.52-17.9a1.291,1.291,0,0,1-2.58-.01A1.291,1.291,0,0,1,1246.53,3957.77Z" transform="translate(-1212.03 -3928)"/>
</svg>
