<svg xmlns="http://www.w3.org/2000/svg" width="24" height="12" viewBox="0 0 24 12">
  <defs>
    <style>
      .cls-1 {
        fill: #fff;
        fill-rule: evenodd;
      }
    </style>
  </defs>
  <path class="cls-1" d="M308,550.242a7.062,7.062,0,0,1-.538.712q-2.274,2.355-4.565,4.691a0.932,0.932,0,0,1-1.325.137,0.982,0.982,0,0,1-.045-1.466c0.788-.817,1.583-1.626,2.374-2.439,0.281-.288.558-0.58,0.875-0.911H285.013a0.968,0.968,0,0,1-.139-1.931c0.085,0,.172,0,0.257,0h19.647c-0.086-.093-0.14-0.154-0.2-0.212-1.019-1.046-2.042-2.087-3.055-3.138a0.975,0.975,0,0,1,.4-1.648,0.926,0.926,0,0,1,.957.3q1.35,1.393,2.708,2.778c0.625,0.642,1.257,1.279,1.872,1.932a7.764,7.764,0,0,1,.538.712v0.483Z" transform="translate(-284 -544)"/>
</svg>
