<svg xmlns="http://www.w3.org/2000/svg" width="51.03" height="71.47" viewBox="0 0 51.03 71.47">
  <defs>
    <style>
      .cls-1 {
        fill: #f94735;
        fill-rule: evenodd;
      }
    </style>
  </defs>
  <path class="cls-1" d="M1098.11,4564.53a2.5,2.5,0,0,0,.24.22,1.355,1.355,0,0,1,.56,1.59,1.338,1.338,0,0,1-1.31.98,20.845,20.845,0,0,0-8.74,2.47c-6.78,3.78-10.65,9.5-11.38,17.23a20.844,20.844,0,0,0,3.73,13.95,5.763,5.763,0,0,1,3.77-.31,5.312,5.312,0,0,1,3.87,5.93,5.336,5.336,0,0,1-10.52.16,5.066,5.066,0,0,1,.49-3.38,0.812,0.812,0,0,0-.04-0.99,24.223,24.223,0,0,1,12.89-36.8c1.4-.43,2.87-0.61,4.3-0.92,0.16-.03.31-0.09,0.46-0.13h1.68Zm-14.52,43.73a2.48,2.48,0,1,0-2.53-2.44A2.463,2.463,0,0,0,1083.59,4608.26Zm34.52,5.24a5.073,5.073,0,0,1,5.52.48,4.649,4.649,0,0,1,1.93,3.79c0.02,5.55.01,11.11,0.01,16.67a1.4,1.4,0,0,1-1.43,1.55,1.38,1.38,0,0,1-1.38-1.58q-0.015-7.965-.01-15.91a5.153,5.153,0,0,0-.08-1.04,2.132,2.132,0,0,0-2.23-1.72,2.065,2.065,0,0,0-2.04,1.84c-0.1,1.08-.06,2.18-0.07,3.27-0.01.58,0.01,1.17-.01,1.75a1.409,1.409,0,0,1-1.42,1.48,1.445,1.445,0,0,1-1.39-1.54c-0.02-2.41,0-4.83-.01-7.25a3.429,3.429,0,0,0-.14-0.96,2.174,2.174,0,0,0-4.23.65c-0.02,2.4,0,4.8-.01,7.19a2.66,2.66,0,0,1-.12.89,1.316,1.316,0,0,1-1.42.91,1.346,1.346,0,0,1-1.26-1.19,5.768,5.768,0,0,1-.04-0.83v-6.77a2.151,2.151,0,0,0-1.32-2.12,2.056,2.056,0,0,0-2.29.32,2.356,2.356,0,0,0-.81,1.93q0.015,3.345,0,6.7a1.344,1.344,0,0,1-1.44,1.44,1.367,1.367,0,0,1-1.35-1.25c-0.02-.23-0.01-0.46-0.01-0.7v-25.75a2.188,2.188,0,0,0-2.47-2.36,2.13,2.13,0,0,0-1.9,1.91c-0.02.3-.02,0.61-0.02,0.91v30.7c0,0.24.01,0.47-.01,0.7a1.4,1.4,0,0,1-1.13,1.35,1.37,1.37,0,0,1-1.54-.71q-1.32-2.13-2.62-4.28c-0.55-.89-1.08-1.79-1.64-2.68a2.377,2.377,0,1,0-4.16,2.3c1.62,3.29,3.26,6.57,4.89,9.86a4.742,4.742,0,0,1,.24.51,1.386,1.386,0,0,1-.64,1.89,1.37,1.37,0,0,1-1.89-.67c-0.74-1.45-1.45-2.91-2.17-4.37-1.04-2.08-2.1-4.14-3.09-6.24a5.114,5.114,0,0,1,1.2-5.95,5.057,5.057,0,0,1,5.96-.74,8.222,8.222,0,0,1,2.08,2,24.447,24.447,0,0,1,1.6,2.56c0.03-.39.05-0.59,0.05-0.78,0.01-6.3,0-12.61.02-18.91a0.853,0.853,0,0,0-.59-0.94,14.261,14.261,0,1,1,11.16.13,0.846,0.846,0,0,0-.5.52c-0.03,2.36-.02,4.73-0.02,7.2,7.16-1.93,12.32-6.1,15.02-12.92,2.79-7.06,1.9-13.83-2.24-20.24a5.565,5.565,0,0,1-4.72-.02,5.2,5.2,0,0,1-2.47-2.47,5.292,5.292,0,0,1,1.44-6.43,5.358,5.358,0,0,1,7.88,7.06,23.757,23.757,0,0,1,3.63,20.43c-1.98,7.31-6.61,12.51-13.47,15.82,0.27,0.24.49,0.43,0.74,0.65A5.1,5.1,0,0,1,1118.11,4613.5Zm-24.3-14.65c0-.96-0.04-1.91.01-2.85a9.449,9.449,0,0,1,.32-2.12,0.994,0.994,0,0,0-.19-1.1,6.375,6.375,0,0,1,.99-9.07,6.444,6.444,0,0,1,9.18,1.28,6.372,6.372,0,0,1-.33,7.94,1.152,1.152,0,0,0-.25.75c0.07,0.78.27,1.55,0.31,2.33,0.06,0.98.02,1.97,0.02,3a11.356,11.356,0,0,0,6.27-12.76,11.544,11.544,0,0,0-12.48-8.9,11.661,11.661,0,0,0-10.2,10.34C1087.08,4592.42,1090.23,4598.02,1093.81,4598.85Zm2.51-7.65a4.893,4.893,0,0,1,4.65-.17,0.63,0.63,0,0,0,.95-0.3,3.6,3.6,0,0,0-5.62-4.45A3.532,3.532,0,0,0,1096.32,4591.2Zm20.44-19.49a2.434,2.434,0,0,0-2.47-2.48,2.476,2.476,0,1,0-.01,4.95A2.44,2.44,0,0,0,1116.76,4571.71Zm-11.48-5.31a1.432,1.432,0,0,1-1.4,1.44,1.461,1.461,0,0,1-1.41-1.44,1.43,1.43,0,0,1,1.38-1.38A1.394,1.394,0,0,1,1105.28,4566.4Z" transform="translate(-1074.56 -4564.53)"/>
</svg>
