<svg xmlns="http://www.w3.org/2000/svg" width="82.031" height="84" viewBox="0 0 82.031 84">
  <defs>
    <style>
      .cls-1 {
        fill: #f94735;
        fill-rule: evenodd;
      }
    </style>
  </defs>
  <path class="cls-1" d="M325.056,4641.99a10.306,10.306,0,0,1-4.437-1.93,15.89,15.89,0,0,1-1.259-1.14q-8.719-8.88-17.427-17.8a9.536,9.536,0,0,1-.9-12.83c1.3-1.62,2.869-3.01,4.313-4.51,0.731-.76,1.457-1.53,2.126-2.23,3.287,3.36,6.528,6.67,9.9,10.12-0.343.32-.8,0.72-1.234,1.16-1.256,1.26-2.507,2.54-3.747,3.82a1.444,1.444,0,0,0,0,2.28c1.406,1.46,2.827,2.89,4.327,4.43,0.132-.38.235-0.65,0.318-0.93a9.531,9.531,0,0,1,8.1-7.17c2.474-.42,4.939-0.89,7.407-1.34,0.231-.05.456-0.12,0.91-0.24a3.65,3.65,0,0,0-.646-0.9,13.759,13.759,0,0,1-5.825-8.32,1.079,1.079,0,0,0-.575-0.64,5.445,5.445,0,0,1-3.747-5.5c0-3.11-.013-6.23,0-9.34a17.489,17.489,0,0,1,14.71-17.22,17.292,17.292,0,0,1,19.607,14.99,21.575,21.575,0,0,1,.172,2.86c0.017,5.08.009,10.16,0.007,15.25,0,2.96-1.626,4.7-4.507,4.6a3.541,3.541,0,0,0-3.441,1.44,13.41,13.41,0,0,1-2.206,1.88,5.277,5.277,0,0,0-.669.94c2.322,0.43,4.395.79,6.457,1.21a28.646,28.646,0,0,1,4.428,1.06,8.529,8.529,0,0,1,5.133,5.31c1.114,3.15,2.107,6.35,3.149,9.52a1.407,1.407,0,0,1,0,.33H337.373c-0.036.06-.072,0.12-0.109,0.19,0.667,0.56,1.334,1.13,2.061,1.74-2.677,2.47-5.132,4.79-7.645,7.04a9.576,9.576,0,0,1-4.375,1.87h-2.249Zm4.3-18.84c1.573,1.62,3.093,3.15,4.578,4.72a1.654,1.654,0,0,0,1.33.56q12.839-.015,25.678-0.01h0.977c-0.675-2.06-1.267-4.01-1.948-5.92a6.505,6.505,0,0,0-5.277-4.46c-2.755-.52-5.516-1-8.263-1.55a1.27,1.27,0,0,0-1.338.4c-1.7,1.78-3.431,3.52-5.186,5.32-0.228-.22-0.425-0.4-0.611-0.59-1.553-1.58-3.116-3.16-4.647-4.76a1.191,1.191,0,0,0-1.269-.37c-2.513.5-5.03,0.98-7.559,1.38-2.789.45-4.924,1.73-5.972,4.53-0.323.86-.62,1.74-0.859,2.63a1.048,1.048,0,0,0,.2.83c0.683,0.77,1.422,1.48,2.141,2.22,1.008,1.03,1.548,1.04,2.583.09C325.7,4626.52,327.485,4624.88,329.355,4623.15Zm25.206-29.21a67.72,67.72,0,0,0-.35-7.46,14.482,14.482,0,0,0-27.243-4.26c-1.941,3.69-1.667,7.64-1.621,11.58,1.289-.01,1.455-0.84,1.282-1.97,5.472,0.35,9.8-1.82,13.251-5.99a18.707,18.707,0,0,0,5.94,4.72,16.264,16.264,0,0,0,7.3,1.3c0.024,0.57.045,1.05,0.065,1.53C353.6,4593.56,354,4593.71,354.561,4593.94Zm-14.621,12.8c2.9,0,5.71-.01,8.518.01a0.773,0.773,0,0,0,.914-0.57,22.01,22.01,0,0,0,1.03-3.99c0.183-2.34.065-4.7,0.108-7.05,0.011-.58-0.286-0.64-0.728-0.72a30.615,30.615,0,0,1-3.428-.77,16.443,16.443,0,0,1-6.4-3.88,1.092,1.092,0,0,0-.192.08,16.862,16.862,0,0,1-9.965,4.6c-0.465.04-.542,0.3-0.539,0.72,0.015,2.1,0,4.21.019,6.31a9.961,9.961,0,0,0,.174,1.79,10.6,10.6,0,0,0,12.486,8.7,10.017,10.017,0,0,0,4.891-2.47H339.94v-2.76Zm-29.7,8.25c-2.04-2.08-4.051-4.13-6.065-6.18-3.364,3.19-3.452,7.26-.172,10.61q8.685,8.88,17.375,17.74a6.536,6.536,0,0,0,10.073-.5q-3.021-3.1-6.033-6.2c-1.875,1.52-3.987,1.51-5.589-.11-3.174-3.22-6.341-6.44-9.468-9.7a4.873,4.873,0,0,1-1.022-1.81A3.96,3.96,0,0,1,310.238,4614.99Zm17.432,13.38c2.077,2.12,4.071,4.16,6.1,6.23,0.453-.44.985-0.96,1.451-1.42-2.039-2.09-4.014-4.12-6.048-6.21C328.658,4627.45,328.114,4627.96,327.67,4628.37Zm-21.331-21.71c2.042,2.08,4.038,4.12,5.966,6.08,0.387-.39.837-0.84,1.239-1.25q-2.955-3.03-5.984-6.14C307.147,4605.79,306.712,4606.26,306.339,4606.66Zm33.57,11.53q1.836-1.875,3.779-3.86a13.4,13.4,0,0,1-7.559.02C337.473,4615.72,338.716,4616.98,339.909,4618.19Zm14.488-14.83a3.534,3.534,0,0,0-1.49.81,11.953,11.953,0,0,0-.752,2.52C354.329,4606.87,354.7,4606.33,354.4,4603.36Zm-27.786-6.85a1.94,1.94,0,0,0-1.259,1.81,2.32,2.32,0,0,0,1.259,2.5v-4.31Zm26.578,4.42a2.644,2.644,0,0,0,1.236-2.77,2.367,2.367,0,0,0-1.236-1.79v4.56Zm24.7-42.93a1.011,1.011,0,0,0,.249.16,4.011,4.011,0,0,1,2.844,4.08q0.027,5.2,0,10.41c-0.015,2.66-1.664,4.45-4.283,4.28a9.431,9.431,0,0,0-6.246,1.89c-3.133,2.17-6.4,4.14-9.806,6.31,0.463-2.8.9-5.43,1.348-8.15h-3.015c-2.9-.01-4.512-1.66-4.515-4.62,0-3.06.073-6.12-.023-9.18-0.079-2.54.776-4.34,3.214-5.18h20.232Zm-13.632,21.63c1.754-1.12,3.437-2.03,4.935-3.19a9.774,9.774,0,0,1,7.5-2.22c1.157,0.14,1.668-.46,1.671-1.64,0.007-3.39.006-6.77,0-10.16a1.419,1.419,0,0,0-1.646-1.7q-8.984-.015-17.967,0a1.365,1.365,0,0,0-1.594,1.64q-0.007,4.92,0,9.84c0,1.73.3,2.05,1.991,2.05h5.99C364.843,4576.02,364.567,4577.71,364.254,4579.63Zm-65.268,8.88c0.753-.47,1.454-0.9,2.259-1.4,0.817,1.39,1.621,2.74,2.479,4.19,3.3-12.46,10.526-21.38,22.085-26.37a35.718,35.718,0,0,1,25.07-1.19c-0.136.47-.248,0.88-0.37,1.29s-0.26.82-.4,1.25c-11.528-3.2-22.122-1.37-31.579,6.12a34.457,34.457,0,0,0-12.091,19.15c1.309-.79,2.435-1.48,3.6-2.18,0.457,0.77.881,1.49,1.357,2.3-2.591,1.59-5.142,3.16-7.756,4.76C302.085,4593.78,300.553,4591.18,298.986,4588.51Zm73.581,0.05c-0.859,1.45-1.588,2.68-2.361,3.98-0.763-.46-1.484-0.9-2.266-1.38,1.565-2.66,3.1-5.27,4.654-7.92,2.6,1.59,5.131,3.14,7.759,4.75-0.459.78-.9,1.54-1.358,2.32-1.289-.79-2.516-1.53-3.815-2.32,3.793,13.11,1.659,25.01-6.383,35.91-0.735-.61-1.375-1.13-2.062-1.69C374.23,4612.05,376.226,4600.92,372.567,4588.56Zm3.042-22.48h-15.8v-2.61h15.8v2.61Zm-5.277,2.8v2.61H359.826v-2.61h10.506Zm5.279,2.64h-2.485v-2.63h2.485v2.63Z" transform="translate(-298.969 -4558)"/>
</svg>
