<svg xmlns="http://www.w3.org/2000/svg" width="20.12" height="20.094" viewBox="0 0 20.12 20.094">
  <defs>
    <style>
      .cls-1 {
        fill: #fff;
        fill-rule: evenodd;
      }
    </style>
  </defs>
  <path class="cls-1" d="M1122.37,7.9h1.26c0.34,0.045.68,0.078,1.02,0.136a10.088,10.088,0,0,1,8.25,8.183c0.06,0.365.1,0.736,0.15,1.1v1.256c-0.03.239-.05,0.479-0.09,0.717a10.094,10.094,0,0,1-8.21,8.549c-0.37.067-.75,0.105-1.12,0.156h-1.26c-0.24-.03-0.49-0.057-0.73-0.092a10.082,10.082,0,0,1-8.53-8.208c-0.07-.372-0.11-0.748-0.16-1.123V17.325c0.04-.336.08-0.674,0.13-1.008a10.107,10.107,0,0,1,8.19-8.26C1121.63,7.993,1122,7.953,1122.37,7.9Zm0.62,0.942a9.108,9.108,0,1,0,9.12,9.109A9.126,9.126,0,0,0,1122.99,8.845Zm0.01,4.969h4.59a1.155,1.155,0,0,1,1.28,1.275v5.73a1.16,1.16,0,0,1-1.28,1.277q-4.59,0-9.18,0a1.16,1.16,0,0,1-1.28-1.279v-5.73a1.155,1.155,0,0,1,1.28-1.273H1123Zm-4.92,1.425c0,0.1-.01.161-0.01,0.219v5.356c0,0.3.05,0.341,0.35,0.341h9.16c0.3,0,.35-0.044.35-0.357V15.462a2.03,2.03,0,0,0-.02-0.211c-0.08.059-.13,0.1-0.18,0.136q-2.175,1.725-4.34,3.451a0.507,0.507,0,0,1-.77,0l-2.97-2.355C1119.14,16.079,1118.63,15.674,1118.08,15.239Zm0.94-.468c0.05,0.045.08,0.067,0.1,0.085,1.25,1,2.51,1.991,3.76,2.991a0.169,0.169,0,0,0,.26-0.015c1.06-.848,2.13-1.692,3.19-2.538,0.21-.164.42-0.33,0.66-0.523h-7.97Z" transform="translate(-1112.94 -7.906)"/>
</svg>
