<svg xmlns="http://www.w3.org/2000/svg" width="50.844" height="50.84" viewBox="0 0 50.844 50.84">
  <defs>
    <style>
      .cls-1 {
        fill: #fff;
        fill-rule: evenodd;
      }
    </style>
  </defs>
  <path class="cls-1" d="M242.9,3482.94v2.97a3.115,3.115,0,0,0-.088.44,23.409,23.409,0,0,1-.969,5.34,25.059,25.059,0,0,1-7.87,12.06,24.693,24.693,0,0,1-12.747,5.8c-0.748.11-1.5,0.19-2.251,0.29h-2.978a3.256,3.256,0,0,0-.43-0.09,23.092,23.092,0,0,1-5.342-.97,24.984,24.984,0,0,1-12.062-7.87,24.716,24.716,0,0,1-5.8-12.74c-0.11-.75-0.193-1.5-0.288-2.26v-2.97a3.3,3.3,0,0,0,.089-0.43,23.547,23.547,0,0,1,.968-5.35A25.066,25.066,0,0,1,201,3465.1a24.7,24.7,0,0,1,12.748-5.8c0.748-.11,1.5-0.19,2.25-0.29h2.978a3.27,3.27,0,0,0,.431.09,23.653,23.653,0,0,1,5.342.97,25.06,25.06,0,0,1,12.062,7.87,24.763,24.763,0,0,1,5.8,12.75C242.718,3481.43,242.8,3482.19,242.9,3482.94Zm-25.439,23.92a22.435,22.435,0,1,0-22.412-22.48A22.473,22.473,0,0,0,217.457,3506.86Zm3.8-19.21c0.4-.41.813-0.84,1.234-1.26a4.162,4.162,0,0,1,6.1-.25,32.571,32.571,0,0,1,3.072,3.1,4.149,4.149,0,0,1-.2,5.85c-0.825.86-1.673,1.7-2.528,2.53a6.909,6.909,0,0,1-4.661,1.89,14.866,14.866,0,0,1-7.715-2,29.289,29.289,0,0,1-11.7-11.27,17.3,17.3,0,0,1-2.444-7,7.533,7.533,0,0,1,2.218-6.65c0.71-.67,1.378-1.38,2.073-2.07a4.174,4.174,0,0,1,6-.24,34,34,0,0,1,3.146,3.16,4.137,4.137,0,0,1-.2,5.81c-0.469.49-.967,0.95-1.417,1.39C216.6,3482.98,218.908,3485.29,221.261,3487.65Zm3.084,8.91a3.983,3.983,0,0,0,2.66-1.21c0.773-.77,1.55-1.53,2.314-2.31a1.285,1.285,0,0,0,0-2c-0.85-.86-1.7-1.71-2.562-2.57a1.321,1.321,0,0,0-2.142,0c-0.752.75-1.5,1.5-2.247,2.24a1.508,1.508,0,0,1-2.385.01q-4.41-4.41-8.807-8.81a1.5,1.5,0,0,1,0-2.35c0.768-.78,1.546-1.54,2.314-2.32a1.294,1.294,0,0,0,0-2.03c-0.85-.86-1.7-1.71-2.562-2.56a1.313,1.313,0,0,0-2.112-.01c-0.754.75-1.494,1.5-2.248,2.25a4.119,4.119,0,0,0-1.195,2.9,11.555,11.555,0,0,0,1.465,5.79,25.8,25.8,0,0,0,12.423,11.91A11.7,11.7,0,0,0,224.345,3496.56Z" transform="translate(-192.062 -3459)"/>
</svg>
