<svg xmlns="http://www.w3.org/2000/svg" width="50" height="51" viewBox="0 0 50 51">
  <defs>
    <style>
      .cls-1 {
        fill: #f94735;
        fill-rule: evenodd;
      }
    </style>
  </defs>
  <path class="cls-1" d="M211,5477.01v2.98a3.259,3.259,0,0,0-.087.44,23.943,23.943,0,0,1-.953,5.36,25.171,25.171,0,0,1-7.741,12.1,24.149,24.149,0,0,1-12.54,5.82c-0.736.11-1.476,0.19-2.214,0.29h-2.93a3.157,3.157,0,0,0-.423-0.09,22.915,22.915,0,0,1-5.255-.97,24.608,24.608,0,0,1-11.866-7.9,25.036,25.036,0,0,1-5.708-12.79c-0.108-.75-0.189-1.5-0.283-2.26v-2.98a3.259,3.259,0,0,0,.087-0.44,24,24,0,0,1,.953-5.36,25.171,25.171,0,0,1,7.741-12.1,24.145,24.145,0,0,1,12.54-5.82c0.736-.11,1.476-0.19,2.214-0.29h2.93a3.157,3.157,0,0,0,.423.09,22.906,22.906,0,0,1,5.255.97,24.608,24.608,0,0,1,11.866,7.9,25.036,25.036,0,0,1,5.708,12.79C210.825,5475.5,210.906,5476.25,211,5477.01Zm-25.025,24a22.514,22.514,0,1,0-22.047-22.56A22.329,22.329,0,0,0,185.975,5501.01Zm3.742-19.28c0.395-.41.8-0.84,1.215-1.26a4.049,4.049,0,0,1,6.005-.25,32.392,32.392,0,0,1,3.021,3.11,4.221,4.221,0,0,1-.194,5.87c-0.811.86-1.644,1.7-2.486,2.54a6.747,6.747,0,0,1-4.585,1.9,14.355,14.355,0,0,1-7.589-2.01,29.059,29.059,0,0,1-11.505-11.31,17.622,17.622,0,0,1-2.405-7.02,7.672,7.672,0,0,1,2.182-6.68c0.7-.67,1.356-1.38,2.039-2.07a4.052,4.052,0,0,1,5.9-.25,35.192,35.192,0,0,1,3.095,3.18,4.212,4.212,0,0,1-.192,5.83c-0.462.49-.952,0.95-1.394,1.39C185.13,5477.05,187.4,5479.37,189.717,5481.73Zm3.034,8.94a3.823,3.823,0,0,0,2.617-1.2c0.76-.78,1.525-1.55,2.276-2.33a1.308,1.308,0,0,0,0-2.01c-0.836-.86-1.676-1.71-2.52-2.57a1.283,1.283,0,0,0-2.108,0c-0.739.75-1.47,1.5-2.21,2.25a1.463,1.463,0,0,1-2.346,0q-4.338-4.41-8.664-8.84a1.512,1.512,0,0,1,0-2.35c0.755-.78,1.521-1.55,2.276-2.33a1.319,1.319,0,0,0,0-2.04c-0.836-.86-1.676-1.72-2.52-2.57a1.28,1.28,0,0,0-2.078,0c-0.742.74-1.469,1.5-2.211,2.25a4.159,4.159,0,0,0-1.176,2.91,11.76,11.76,0,0,0,1.441,5.81,25.559,25.559,0,0,0,12.22,11.95A11.224,11.224,0,0,0,192.751,5490.67Z" transform="translate(-161 -5453)"/>
</svg>
