<svg xmlns="http://www.w3.org/2000/svg" width="20" height="20" viewBox="0 0 20 20">
  <defs>
    <style>
      .cls-1 {
        fill: #fff;
        fill-rule: evenodd;
      }
    </style>
  </defs>
  <path class="cls-1" d="M891,17.414v1.172c-0.012.063-.026,0.125-0.035,0.188-0.048.367-.075,0.738-0.144,1.1a10,10,0,0,1-8.1,7.971c-0.376.065-.758,0.1-1.137,0.154h-1.172c-0.264-.032-0.528-0.058-0.791-0.1a10,10,0,0,1-8.469-8.183c-0.066-.376-0.1-0.757-0.154-1.135V17.414c0.012-.062.026-0.125,0.035-0.188,0.048-.367.075-0.738,0.144-1.1a10,10,0,0,1,8.1-7.971c0.376-.065.758-0.1,1.137-0.154h1.172c0.264,0.032.528,0.058,0.791,0.1a10,10,0,0,1,8.469,8.183C890.912,16.655,890.949,17.036,891,17.414Zm-18.828.577a8.828,8.828,0,1,0,8.841-8.82A8.843,8.843,0,0,0,872.172,17.992ZM882.5,19.27c0.155-.163.324-0.351,0.5-0.528a1.638,1.638,0,0,1,2.362-.077,14.228,14.228,0,0,1,1.2,1.2,1.651,1.651,0,0,1-.079,2.352c-0.309.316-.624,0.628-0.939,0.939a2.958,2.958,0,0,1-2.525.762,7.086,7.086,0,0,1-3.073-1.165,11.616,11.616,0,0,1-3.921-4.059,6.893,6.893,0,0,1-.949-2.724,2.973,2.973,0,0,1,.879-2.635c0.285-.267.55-0.555,0.83-0.827a1.642,1.642,0,0,1,2.336-.081,13.5,13.5,0,0,1,1.227,1.229,1.636,1.636,0,0,1-.087,2.334c-0.177.182-.362,0.355-0.528,0.516Zm0.96,3.5a1.693,1.693,0,0,0,1.283-.465c0.309-.308.619-0.614,0.924-0.926a0.5,0.5,0,0,0,0-.774q-0.507-.514-1.022-1.022a0.517,0.517,0,0,0-.831,0c-0.3.3-.6,0.6-0.9,0.9a0.587,0.587,0,0,1-.911.007Q880.25,18.748,878.508,17a0.584,0.584,0,0,1,.006-0.91c0.3-.306.608-0.607,0.91-0.912a0.512,0.512,0,0,0,.007-0.8q-0.5-.507-1.008-1.008a0.519,0.519,0,0,0-.832,0c-0.3.292-.587,0.591-0.885,0.883a1.614,1.614,0,0,0-.471,1.122,4.5,4.5,0,0,0,.568,2.284,10.142,10.142,0,0,0,4.9,4.7A4.269,4.269,0,0,0,883.458,22.771Z" transform="translate(-871 -8)"/>
</svg>
