<svg xmlns="http://www.w3.org/2000/svg" width="46" height="46" viewBox="0 0 46 46">
  <defs>
    <style>
      .cls-1 {
        fill: #fff;
        fill-rule: evenodd;
      }
    </style>
  </defs>
  <path class="cls-1" d="M611.121,2037a1.154,1.154,0,0,1-.537-1.1c0.009-4.13,0-8.26.006-12.39a0.885,0.885,0,0,1,1.08-1.07h1.242v-0.53q0-4.965,0-9.93a0.849,0.849,0,0,1,1.042-1.04h6.581c0.009-.18.023-0.32,0.023-0.47q0-5.985.006-11.99a0.853,0.853,0,0,0-.3-0.69,3.5,3.5,0,0,1-.753-0.99,0.841,0.841,0,0,0-.792-0.55c-1.891-.17-3.778-0.38-5.667-0.58s-3.806-.4-5.71-0.59q-2.787-.3-5.577-0.58c-1.115-.11-2.229-0.23-3.423-0.35,0,0.35,0,.69,0,1.02,0,0.96-.241,1.21-1.183,1.21h-1.1v1.52a3.483,3.483,0,0,1,1.373,6.41c0.158,0.09.289,0.17,0.425,0.25,2.288,1.23,4.583,2.45,6.86,3.7a2.543,2.543,0,0,0,1.488.37,2.621,2.621,0,0,1,.626.02,0.74,0.74,0,0,1,.693.8q0.009,5.325,0,10.64a0.748,0.748,0,0,1-.657.79,2.672,2.672,0,0,1-.491.03q-11.118,0-22.236.01a1.19,1.19,0,0,1-1.141-.54v-11.23a1.168,1.168,0,0,1,1.1-.54,1.245,1.245,0,0,0,.592-0.15q4.211-2.1,8.414-4.2c0.124-.06.24-0.14,0.376-0.22a3.627,3.627,0,0,1-1.26-2.7c0.454,0,.87-0.02,1.283.01a0.408,0.408,0,0,1,.258.27,1.909,1.909,0,0,0,3.793-.41,1.927,1.927,0,0,0-2-1.77,0.882,0.882,0,0,1-1.055-1.09c0-.65,0-1.3,0-1.97h-1.235a0.905,0.905,0,0,1-1.074-1.09c0-1.04.009-2.09,0-3.14a1.2,1.2,0,0,1,.515-1.15h5.121c0.631,0.37.5,1.01,0.535,1.61,6.908,0.72,13.783,1.43,20.673,2.14,0.033-.14.064-0.24,0.079-0.34a3.814,3.814,0,1,1,6.354,3.41,1.053,1.053,0,0,0-.3.68c-0.017,3.98-.013,7.97-0.012,11.95,0,0.15.014,0.31,0.023,0.49,0.95,0,1.847.02,2.744-.01a1.059,1.059,0,0,1,1.077.55V2037H611.121Zm-26.571-17.66h21.43v-9.16H584.55v9.16Zm38.293,16.11v-11.44H612.15v11.44h10.693Zm0-13.02v-9.93h-8.371v9.93h8.371Zm-20.779-13.84c-0.135-.08-0.19-0.13-0.251-0.16-2.1-1.13-4.2-2.27-6.311-3.39a0.787,0.787,0,0,0-.564.02c-2.234,1.11-4.459,2.23-6.686,3.34-0.085.04-.167,0.09-0.351,0.19h14.163Zm21.529,2.34v-12.09h-1.468v12.09h1.468Zm-0.715-13.62a2.259,2.259,0,0,0,2.271-2.32,2.306,2.306,0,0,0-2.295-2.27,2.352,2.352,0,0,0-2.294,2.3A2.3,2.3,0,0,0,622.879,1997.31Zm1.6,15.18a1.384,1.384,0,0,0,.674,1.77,2.511,2.511,0,0,1,.239.21c0.671,0.55,1.342,1.11,2.051,1.7v-3.68h-2.964Zm-30.713-17.65c0.956,0,1.878.01,2.8-.01a0.317,0.317,0,0,0,.232-0.18c0.017-.7.01-1.4,0.01-2.09h-3.042v2.28Zm31.149,33.03,2.537,2.1v-3.79C626.584,2026.76,625.772,2027.3,624.911,2027.87Zm2.537-8.59c-0.877.58-1.687,1.12-2.535,1.69,0.862,0.72,1.671,1.39,2.535,2.11v-3.8Zm-0.494,5.38c-0.847-.7-1.66-1.37-2.52-2.09v3.77C625.295,2025.77,626.106,2025.23,626.954,2024.66Zm0,6.91c-0.844-.71-1.653-1.38-2.516-2.1v3.77C625.288,2032.68,626.091,2032.14,626.954,2031.57Zm-2.531-12.12,2.53-1.69c-0.859-.71-1.666-1.38-2.53-2.1v3.79Zm3.033,13.62c-1.015.68-1.959,1.3-2.889,1.94a1.246,1.246,0,0,0-.214.43h3.1v-2.37ZM583,2025.32a1.054,1.054,0,0,1,1.18-.59h22.3a0.866,0.866,0,0,1,1.046,1.05c0,3.38-.007,6.76.009,10.14a1.081,1.081,0,0,1-.548,1.08H583v-11.68Zm1.56,0.97v9.15h21.418v-9.15H584.56Zm9.967-14.57H596v6.09h-1.475v-6.09Zm7.63,0h1.5v6.12c-0.428,0-.843.02-1.255-0.01a0.387,0.387,0,0,1-.239-0.27C602.154,2015.63,602.157,2013.7,602.157,2011.72Zm-3.785-.01h1.467v6.09h-1.467v-6.09Zm-6.211.02v6.11c-0.444,0-.86.01-1.274-0.01a0.3,0.3,0,0,1-.217-0.2c-0.012-1.96-.01-3.91-0.01-5.9h1.5Zm-5.285-.01h1.476v6.08h-1.476v-6.08Zm35.98-17.84a1.145,1.145,0,1,1-1.131,1.15A1.172,1.172,0,0,1,622.856,1993.88Zm0.553,1.15a1.464,1.464,0,0,0-.535-0.34,0.484,0.484,0,0,0-.343.33,0.519,0.519,0,0,0,.339.36A1.576,1.576,0,0,0,623.409,1995.03Zm-36.526,32.8h1.463v6.08h-1.463v-6.08Zm3.812,0h1.466v6.08H590.7v-6.08Zm3.842,0H596v6.08h-1.463v-6.08Zm5.312,6.08h-1.47v-6.06h1.47v6.06Zm2.343-6.08h1.471v6.08h-1.471v-6.08Z" transform="translate(-583 -1991)"/>
</svg>
