<svg xmlns="http://www.w3.org/2000/svg" width="49" height="52" viewBox="0 0 49 52">
  <defs>
    <style>
      .cls-1 {
        fill: #fff;
        fill-rule: evenodd;
      }
    </style>
  </defs>
  <path class="cls-1" d="M990.828,2405.93a3.644,3.644,0,0,0,2.485-.49c3.414-2.22,6.877-4.35,10.327-6.51a4.727,4.727,0,0,1,5.47.18,4.823,4.823,0,0,1,.13,7.54c-1.72,1.49-3.47,2.96-5.21,4.44-1.55,1.31-3.12,2.6-4.641,3.94a8.986,8.986,0,0,1-6.239,2.3c-3.66-.02-7.321,0-10.981-0.01a0.582,0.582,0,0,0-.726.51,2.361,2.361,0,0,1-1.209,1.49c-1.175.7-2.341,1.42-3.514,2.12a2.5,2.5,0,0,1-3.46-.31q-4.841-4.38-9.664-8.78c-0.272-.25-0.554-0.48-0.817-0.74a2.493,2.493,0,0,1-.122-3.51c1.073-1.14,2.182-2.25,3.309-3.34a2.331,2.331,0,0,1,3.025-.25,0.54,0.54,0,0,0,.715-0.01c1.348-.9,2.715-1.77,4.058-2.67a6.265,6.265,0,0,1,3.589-1.1c2.775-.02,5.549-0.03,8.323,0a4.916,4.916,0,0,1,4.986,3.93C990.756,2405.07,990.774,2405.5,990.828,2405.93Zm-19.743.61a3.486,3.486,0,0,1,.489.29c2.812,2.57,5.615,5.15,8.437,7.71a1.229,1.229,0,0,0,.765.27c4.219,0.02,8.438,0,12.656.02a6.267,6.267,0,0,0,4.225-1.59c1.836-1.57,3.683-3.12,5.523-4.68,1.51-1.28,3.01-2.55,4.51-3.84a2.282,2.282,0,0,0,.68-2.63,2.156,2.156,0,0,0-2.22-1.42,3.473,3.473,0,0,0-1.39.5c-3.68,2.29-7.347,4.61-11.038,6.89a2.874,2.874,0,0,1-1.4.4c-2.041.04-4.083,0.02-6.124,0.01a3.154,3.154,0,0,1-.687-0.06,1.175,1.175,0,0,1-.952-1.32,1.252,1.252,0,0,1,1.377-1.12c0.783-.02,1.566-0.01,2.342-0.01a2.389,2.389,0,0,0-2.373-2.71q-4.42-.03-8.841.01a2.943,2.943,0,0,0-1.43.37C974.149,2404.52,972.711,2405.49,971.085,2406.54Zm8.025,10.55c-3.844-3.52-7.642-7.01-11.373-10.43-1.084,1.1-2.125,2.14-3.185,3.21,3.5,3.18,7.05,6.4,10.6,9.63C976.472,2418.69,977.755,2417.92,979.11,2417.09Zm-3.509-34.5v-4.53c0-1.46.375-1.84,1.8-1.84h4.5a5.005,5.005,0,0,1,4.386-6.19,4.711,4.711,0,0,1,4.16,1.72c0.942,1.09,1.118,1.83,1.113,4.47h2.3c0.847,0,1.695-.01,2.543,0a1.258,1.258,0,0,1,1.388,1.41c0.009,1.63,0,3.26,0,4.96a5.058,5.058,0,0,1,4.753,1.34,5,5,0,0,1-.45,7.41,4.948,4.948,0,0,1-4.3.93c0,1.31,0,2.55,0,3.79,0,0.48.014,0.97-.017,1.46a1.094,1.094,0,0,1-1.077,1.08c-1.811.02-3.623,0.04-5.432-.02a2.279,2.279,0,0,1-2.067-2.08,5.677,5.677,0,0,0-.174-1.15,2.385,2.385,0,0,0-2.649-1.67,2.5,2.5,0,0,0-2.128,2.33,2.427,2.427,0,0,1-2.767,2.61c-1,0-2,.01-3.006-0.01a2.755,2.755,0,0,1-2.875-2.89c-0.018-1.12,0-2.25,0-3.43a4.965,4.965,0,0,1-5.053-1.74,4.72,4.72,0,0,1-1.073-3.69A4.99,4.99,0,0,1,975.6,2382.59Zm19.749-3.85h-0.677c-1.638,0-3.275-.01-4.913,0a1.387,1.387,0,0,1-1.406-.72,1.338,1.338,0,0,1,.272-1.5,2.465,2.465,0,1,0-3.844-.02,1.37,1.37,0,0,1,.274,1.55,1.4,1.4,0,0,1-1.42.69c-1.638-.01-3.275,0-4.913,0-0.2,0-.4.01-0.627,0.02v0.78c0,1.65.011,3.3,0,4.95a1.234,1.234,0,0,1-1.563,1.36,3.406,3.406,0,0,1-.787-0.46,2.466,2.466,0,0,0-2.866,4.01,2.4,2.4,0,0,0,3.083-.08,1.269,1.269,0,0,1,1.393-.25,1.308,1.308,0,0,1,.744,1.28c0,0.15,0,.31,0,0.46,0,1.58,0,3.15,0,4.73,0,0.26-.061.6,0.35,0.6,1.113,0.01,2.226,0,3.333,0a5,5,0,0,1,4.808-4.99,4.677,4.677,0,0,1,3.16,1.07,5.16,5.16,0,0,1,1.921,3.94h3.68v-0.73q0-2.565,0-5.13a1.237,1.237,0,0,1,.668-1.2,1.188,1.188,0,0,1,1.394.18,2.5,2.5,0,0,0,.328.24,2.419,2.419,0,0,0,2.851-.14,2.509,2.509,0,0,0,.77-2.79,2.456,2.456,0,0,0-3.9-1.03,1.273,1.273,0,0,1-1.4.22,1.253,1.253,0,0,1-.715-1.28c0.016-.84,0-1.68,0-2.51v-3.25Z" transform="translate(-962 -2370)"/>
</svg>
