<svg xmlns="http://www.w3.org/2000/svg" width="44" height="44" viewBox="0 0 44 44">
  <defs>
    <style>
      .cls-1 {
        fill: #fff;
        fill-rule: evenodd;
      }
    </style>
  </defs>
  <path class="cls-1" d="M248.006,2380.5v2.82c-0.412,1.67-1.442,2.13-2.977,2.1-2.67-.06-5.341-0.02-8.012-0.02h-0.609c0,1.14-.025,2.21.006,3.27a2.478,2.478,0,0,1-1.577,2.62,1.128,1.128,0,0,0-.672,1.38,1.2,1.2,0,0,0,1.19.84,1.169,1.169,0,0,0,1.063-1.1,1.16,1.16,0,0,1,1.316-1.18,1.091,1.091,0,0,1,.963,1.41,17.926,17.926,0,0,1-.68,2.1c2.014,1.01,4.115,2.07,6.233,3.1a6.942,6.942,0,0,0,1.226.31,4.352,4.352,0,0,1,1.549.48,5.759,5.759,0,0,1,.981,1.49v9.86c-0.634,1.66-1.19,2.04-2.986,2.04H226.057c-0.38,0-.759.01-1.138,0a2.329,2.329,0,0,1-2.367-2.27c-0.025-3.12-.023-6.25,0-9.37a2.169,2.169,0,0,1,2.049-2.19,4.956,4.956,0,0,0,2.447-.7c0.842-.45,1.705-0.86,2.557-1.28,1.01-.51,2.019-1.02,3.016-1.53a0.269,0.269,0,0,0-.016-0.09c-1.44-2.25-.992-4.12,1.3-5.43a0.443,0.443,0,0,0,.224-0.26c0.016-1.15.01-2.3,0.01-3.45H216.806v31.17c0.374,0,.715-0.02,1.053,0a1.175,1.175,0,0,1,1.2,1.14,1.288,1.288,0,0,1-.971,1.22H207.364a1.239,1.239,0,0,1-.971-1.46,1.273,1.273,0,0,1,1.47-.9h0.761v-31.23c-0.834,0-1.625.01-2.416,0a2,2,0,0,1-1.628-.83,6.973,6.973,0,0,1-.576-1.13v-2.93c0.637-1.66,1.2-2.03,3.027-2.03h1.636c0-.43,0-0.79,0-1.15,0.018-1.15.612-1.82,2.057-2.34h4.01c1.812,0.47,2.185,1.82,2.027,3.49h28.582a2.37,2.37,0,0,1,2.595,1.95A0.218,0.218,0,0,0,248.006,2380.5Zm-2.385,19.98h-20.75v9.16h20.75v-9.16ZM216.8,2383.07h28.811v-2.22H216.8v2.22Zm14.2,15.03h8.389a0.459,0.459,0,0,0-.1-0.12,23.292,23.292,0,0,1-2.544-1.31,2.436,2.436,0,0,0-2.944-.01C232.956,2397.2,232.021,2397.58,230.993,2398.1Zm-16.612,18.48a1.443,1.443,0,0,0-.6-1.76,2.873,2.873,0,0,1-.4-0.36c-0.772-.7-1.545-1.39-2.39-2.14v4.26h3.386Zm-3.374-14.66v5.14c0.994-.89,1.912-1.71,2.862-2.57C212.916,2403.63,212,2402.81,211.007,2401.92Zm0-10.41v5.15c1-.89,1.914-1.72,2.864-2.57C212.92,2393.24,212,2392.41,211,2391.51Zm-0.011-5.25c1-.89,1.918-1.72,2.878-2.58-0.947-.85-1.873-1.68-2.878-2.58v5.16Zm0.548,13.04c0.953,0.85,1.87,1.67,2.857,2.56v-5.12C213.411,2397.62,212.494,2398.44,211.54,2399.3Zm2.859-18.26v-3.66H210.88a2.01,2.01,0,0,0,.269.72C212.187,2379.07,213.254,2380.01,214.4,2381.04Zm-2.858,7.85c0.952,0.86,1.87,1.68,2.856,2.56v-5.12C213.412,2387.21,212.494,2388.04,211.541,2388.89Zm2.867,18.24c-1,.9-1.92,1.72-2.862,2.57,0.961,0.86,1.877,1.68,2.862,2.56v-5.13Zm-5.764-26.28h-2.235v2.22h2.235v-2.22Zm25.464,24.24c0,0.36.019,0.72,0,1.08a1.163,1.163,0,1,1-2.323-.01c-0.027-.73-0.029-1.48,0-2.21a1.177,1.177,0,0,1,1.161-1.19,1.193,1.193,0,0,1,1.158,1.19C234.128,2404.33,234.107,2404.71,234.108,2405.09Zm-6.925-.03c0-.4-0.015-0.8,0-1.19a1.137,1.137,0,0,1,2.271-.06c0.035,0.85.039,1.7,0,2.54a1.136,1.136,0,0,1-2.265-.05C227.167,2405.89,227.185,2405.47,227.183,2405.06Zm11.516,0.05c0,0.39.017,0.79-.005,1.19a1.136,1.136,0,0,1-2.265.06c-0.041-.87-0.042-1.73,0-2.6a1.136,1.136,0,0,1,2.264.1C238.716,2404.27,238.7,2404.69,238.7,2405.11Zm4.643-.05c0,0.4.016,0.79,0,1.19a1.167,1.167,0,0,1-1.151,1.13,1.128,1.128,0,0,1-1.129-1.14c-0.019-.79-0.02-1.59,0-2.38a1.122,1.122,0,0,1,1.107-1.1,1.156,1.156,0,0,1,1.169,1.11C243.36,2404.26,243.342,2404.66,243.342,2405.06Z" transform="translate(-204 -2374.97)"/>
</svg>
