<svg xmlns="http://www.w3.org/2000/svg" width="42.25" height="43.09" viewBox="0 0 42.25 43.09">
  <defs>
    <style>
      .cls-1 {
        fill: #fff;
        fill-rule: evenodd;
      }
    </style>
  </defs>
  <path class="cls-1" d="M585.814,2406.57v-1.85c0.026-.12.062-0.24,0.078-0.36a11.232,11.232,0,0,1,6.115-8.88,10.581,10.581,0,0,1,3.751-1.14v-0.53q0-8.04,0-16.07a3.613,3.613,0,0,1,1.679-3.19,8.2,8.2,0,0,1,1.549-.65h19.886c0.346,0.29.718,0.55,1.034,0.87q3.681,3.7,7.339,7.45c0.3,0.31.551,0.68,0.824,1.02v30.48a2.234,2.234,0,0,0-.078.24,3.719,3.719,0,0,1-2.26,2.77,8.9,8.9,0,0,1-.893.28H596.088c-0.2-.03-0.4-0.06-0.6-0.1a11.126,11.126,0,0,1-9.253-8.26A20.41,20.41,0,0,1,585.814,2406.57Zm18.237,7.91h20.083a1.293,1.293,0,0,0,1.452-1.47q0-13.845,0-27.7v-0.47H618.7a1.273,1.273,0,0,1-1.4-1.43c0-2.17,0-4.35,0-6.52v-0.47H599.678a1.3,1.3,0,0,0-1.437,1.49v16.41l0.145,0.04a11.279,11.279,0,0,1,5.441,2.27,1,1,0,0,0,.565.16c2.775,0.02,5.551.01,8.327,0.01h8.2a1.262,1.262,0,1,1,.012,2.52c-4.695.01-9.39,0-14.085,0h-0.463c0.389,0.84.816,1.61,1.109,2.43,0.3,0.84.465,1.72,0.7,2.63h12.7a1.3,1.3,0,0,1,1.068.44,1.2,1.2,0,0,1,.191,1.34,1.23,1.23,0,0,1-1.235.74H608.136A11.718,11.718,0,0,1,604.051,2414.48Zm-15.753-8.84a8.7,8.7,0,1,0,8.724-8.84A8.783,8.783,0,0,0,588.3,2405.64Zm31.511-27.31v3.96h3.9C622.41,2380.97,621.117,2379.65,619.809,2378.33Zm-7.89,13.42h-9.066a1.261,1.261,0,0,1-.357-2.48,1.681,1.681,0,0,1,.449-0.04q8.962-.015,17.926-0.01a1.272,1.272,0,1,1-.01,2.53h-8.942Zm-16.685,15.73c0.159-.15.269-0.26,0.375-0.36q2.239-2.28,4.481-4.55a1.235,1.235,0,0,1,2.174.52,1.328,1.328,0,0,1-.46,1.31q-2.5,2.55-5.006,5.09c-0.186.19-.369,0.38-0.557,0.57a1.251,1.251,0,0,1-1.964-.01c-0.765-.77-1.526-1.54-2.283-2.32a1.292,1.292,0,0,1-.086-1.9,1.249,1.249,0,0,1,1.843.11C594.241,2406.43,594.716,2406.94,595.234,2407.48Z" transform="translate(-585.812 -2373.91)"/>
</svg>
