<svg xmlns="http://www.w3.org/2000/svg" width="48" height="48" viewBox="0 0 48 48">
  <defs>
    <style>
      .cls-1 {
        fill: #fff;
        fill-rule: evenodd;
      }
    </style>
  </defs>
  <path class="cls-1" d="M244.937,2039a1.246,1.246,0,0,1-.553-1.19q0.012-10.275.005-20.53v-0.65H207.611v0.6q0,10.29.005,20.58a1.252,1.252,0,0,1-.553,1.19H202v-34.69a7,7,0,0,1,.791-0.61q10.206-5.655,20.421-11.28c0.841-.46,1.672-0.95,2.507-1.42h0.562c0.1,0.07.189,0.15,0.292,0.21q11.331,6.645,22.66,13.29a5.949,5.949,0,0,1,.767.66V2039h-5.063Zm3.469-1.61v-0.46q0-15.33.009-30.65a0.66,0.66,0,0,0-.393-0.65q-10.8-6.315-21.586-12.66a0.778,0.778,0,0,0-.887-0.02q-10.76,5.955-21.538,11.88a0.707,0.707,0,0,0-.426.72q0.016,15.66.009,31.31v0.52h2.418v-27.57c0-1.01.195-1.2,1.207-1.2h37.588a2.933,2.933,0,0,1,.514.02,0.708,0.708,0,0,1,.644.64,4.291,4.291,0,0,1,.022.61q0,13.455,0,26.9v0.61h2.418Zm-4.039-27.15H207.646v1.54h36.721v-1.54Zm0,3.19H207.648v1.54h36.721v-1.54ZM222.531,2039a1.261,1.261,0,0,1-.546-1.2c0.01-2.93,0-5.87,0-8.8,0-.95.246-1.19,1.189-1.19q3.912-.015,7.824-0.01h0.609v-0.6q0-3.93,0-7.87a0.927,0.927,0,0,1,1.136-1.14h8.9a0.924,0.924,0,0,1,1.138,1.14q0,9.285.008,18.55a1.089,1.089,0,0,1-.576,1.12H222.531Zm7.521-9.57a0.991,0.991,0,0,0-.034.15c0,0.62,0,1.25-.008,1.87a0.954,0.954,0,0,1-1.142,1.16h-2.482a0.968,0.968,0,0,1-1.188-1.2c0-.65,0-1.3,0-1.96h-1.571v7.94h7.918v-7.96h-1.492Zm11.109,7.96v-7.92h-1.567c0,0.72,0,1.4,0,2.09a0.89,0.89,0,0,1-1.047,1.05c-0.858.01-1.716,0-2.575,0a0.942,0.942,0,0,1-1.161-1.17q0-.99,0-1.98h-1.564v7.93h7.916Zm-1.567-17.59v2.09a0.9,0.9,0,0,1-1.117,1.1H235.9a0.884,0.884,0,0,1-1.09-1.08c0-.7,0-1.39,0-2.1h-1.57v7.92h7.918v-7.93h-1.563Zm-1.612.02h-1.554v1.54h1.554v-1.54Zm-1.551,9.63v1.53h1.544v-1.53h-1.544Zm-8.023,0h-1.575c-0.139,1.58-.078,1.65,1.25,1.56a0.069,0.069,0,0,0,.045,0,0.716,0.716,0,0,0,.268-0.28C228.426,2030.32,228.408,2029.9,228.408,2029.45Zm-2.4-27.25c1.233,0,2.466-.01,3.7,0a0.889,0.889,0,0,1,1.083,1.09c0,0.92,0,1.85,0,2.77a0.811,0.811,0,0,1-.9.94q-3.887.03-7.774,0a0.814,0.814,0,0,1-.894-0.95c-0.006-.94,0-1.88,0-2.81a0.866,0.866,0,0,1,1.046-1.04C223.507,2002.19,224.756,2002.2,226.005,2002.2Zm-3.174,3.17h6.336v-1.54h-6.336v1.54Z" transform="translate(-202 -1991)"/>
</svg>
