<svg xmlns="http://www.w3.org/2000/svg" width="50" height="31.97" viewBox="0 0 50 31.97">
  <defs>
    <style>
      .cls-1 {
        fill: #fff;
        fill-rule: evenodd;
      }
    </style>
  </defs>
  <path class="cls-1" d="M1011,2028.15a1.723,1.723,0,0,1-1.44.72c-4.05.34-8.1,0.72-12.151,1.09-4.242.38-8.483,0.78-12.726,1.17-3.142.28-6.289,0.51-9.425,0.85a9.478,9.478,0,0,1-3.274-.59c-3.33-.81-6.643-1.69-9.964-2.54a1.122,1.122,0,0,1-1.02-1.33V2004.5a1.126,1.126,0,0,1,1.01-1.34c4.043-1.04,8.083-2.09,12.133-3.11a4.672,4.672,0,0,1,1.395.02c2.511,0.21,5.021.44,7.53,0.67,2.753,0.25,5.5.51,8.258,0.76,2.38,0.22,4.762.42,7.142,0.64l7.242,0.66c1.29,0.12,2.59.24,3.88,0.34a1.471,1.471,0,0,1,1.41.79v24.22Zm-2.12-22.9q-16.643-1.515-33.262-3.01v27.53q16.653-1.5,33.262-3v-21.52Zm-35.395-2.8c-1.216.31-2.4,0.63-3.6,0.9a0.607,0.607,0,0,0-.554.73q0.022,11.94.011,23.86v0.57c1.4,0.35,2.757.7,4.144,1.05v-27.11Zm-6.253,1.6c-1.222.31-2.4,0.63-3.584,0.9a0.63,0.63,0,0,0-.568.77q0.022,10.275.01,20.56a1.577,1.577,0,0,0,.011.4,0.448,0.448,0,0,0,.2.27c1.3,0.34,2.6.67,3.929,1.01v-23.91Zm12.519,11.92q0-5.28,0-10.56a1.017,1.017,0,0,1,1.482-1.03,1.848,1.848,0,0,1,.56.76,1.39,1.39,0,0,1,.045.59q0,10.29,0,20.57c0,0.11,0,.23-0.006.35a1.045,1.045,0,1,1-2.083-.07q0-4.29,0-8.56v-2.05Zm8.313,0.02q0-4.68,0-9.36a1.136,1.136,0,0,1,.893-1.29,1.055,1.055,0,0,1,1.212.95,3.675,3.675,0,0,1,.014.5q0,9.21,0,18.41c0,0.1,0,.2,0,0.3a1.064,1.064,0,1,1-2.117-.01c-0.008-2.49,0-4.97,0-7.45v-2.05Zm10.434,0.04c0,2.82,0,5.63,0,8.45a1.032,1.032,0,0,1-.752,1.09,0.945,0.945,0,0,1-1.114-.39,1.271,1.271,0,0,1-.192-0.5,3.262,3.262,0,0,1-.029-0.6q0-8.07,0-16.15a4.289,4.289,0,0,1,.032-0.64,1.013,1.013,0,0,1,1.065-.89,1.035,1.035,0,0,1,.987.98c0.012,0.15,0,.3,0,0.45v8.2Zm6.252-.06v-7.25a1.063,1.063,0,1,1,2.09-.03v14.65a1.05,1.05,0,0,1-1.08,1.2,1.065,1.065,0,0,1-1.01-1.22v-7.35Z" transform="translate(-961 -2000)"/>
</svg>
