<svg xmlns="http://www.w3.org/2000/svg" width="72.875" height="72.84" viewBox="0 0 72.875 72.84">
  <defs>
    <style>
      .cls-1 {
        fill: #f94735;
        fill-rule: evenodd;
      }
    </style>
  </defs>
  <path class="cls-1" d="M683.045,4635.72v-34.16a1.84,1.84,0,0,1,1.991-1.15c0.841,0.05,1.687.01,2.566,0.01,0-.59,0-1.09,0-1.58a4.579,4.579,0,0,1,3.363-4.34c0.479-.13.976-0.19,1.454-0.32q9.943-2.73,19.884-5.47c0.916-.25,1.826-0.52,2.73-0.78A18.174,18.174,0,0,1,714,4586.2a4.3,4.3,0,0,1-.512-2.87,1.331,1.331,0,0,1,1.287-1.12,1.507,1.507,0,0,1,1.561.99,3.377,3.377,0,0,1,.139.77,3.02,3.02,0,0,0,5.924.57,2.991,2.991,0,0,0-1.765-3.62,4.118,4.118,0,0,1-2.584-3.68c-0.078-.97-0.086-1.94-0.117-2.91-0.012-.39,0-0.79,0-1.24-1.071,0-2.063.01-3.054,0a4.381,4.381,0,0,1-4.351-3.57,33.84,33.84,0,0,1-.158-3.54,1.823,1.823,0,0,1,1.144-1.99h15.94a1.827,1.827,0,0,1,1.145,1.99c-0.047.75-.009,1.52-0.01,2.27a4.557,4.557,0,0,1-4.854,4.84c-0.892.01-1.784,0-2.7,0,0,1.22.021,2.33-.007,3.44a1.727,1.727,0,0,0,1.132,1.76,5.975,5.975,0,0,1,3.337,6.06,6.478,6.478,0,0,1-1.579,3.54c0.178,0.06.3,0.12,0.435,0.15q7.2,1.995,14.409,3.99c2.938,0.8,5.866,1.65,8.826,2.37a4.559,4.559,0,0,1,3.64,3.53,22.006,22.006,0,0,1,.2,2.49c0.847,0,1.675.04,2.5-.01a1.841,1.841,0,0,1,1.99,1.15v34.16c-0.38.38-.759,0.76-1.139,1.13H684.184C683.8,4636.48,683.425,4636.1,683.045,4635.72Zm3.016-1.92c0.331,0.02.563,0.04,0.795,0.04q32.62,0,65.239.01c0.681,0.01.814-.21,0.812-0.84q-0.027-14.37-.014-28.74c0-.25-0.02-0.51-0.035-0.83h-0.829q-32.548,0-65.1-.02c-0.751,0-.888.22-0.886,0.92q0.033,14.3.015,28.6v0.86Zm56.7-37.53a2.036,2.036,0,0,0-.286-0.1q-11.2-3.12-22.4-6.21a2.312,2.312,0,0,0-1.168.01c-6.239,1.72-12.472,3.47-18.706,5.21-1.4.4-2.791,0.8-4.007,1.15,0.251,1.41.484,2.71,0.724,4.05h45.114C742.271,4599,742.5,4597.7,742.757,4596.27Zm-29.365-29.24c0,0.54-.028,1.01.006,1.48a1.527,1.527,0,0,0,1.6,1.56c2.985,0.03,5.97.02,8.956,0a1.378,1.378,0,0,0,1.469-1.01,12.742,12.742,0,0,0,.173-2.03H713.392Zm-19.708,33.36c-0.045-1.03.321-2.14-.758-2.74a1.886,1.886,0,0,0-1.576.02c-1.049.62-.689,1.72-0.718,2.72h3.052Zm51.592-.02h3.06c-0.047-1.02.311-2.14-.78-2.73a1.828,1.828,0,0,0-1.518,0C744.96,4598.24,745.309,4599.35,745.276,4600.37Zm-54.658,18.28c0-3.44,0-6.87,0-10.31a1.56,1.56,0,0,1,1.394-1.81,1.432,1.432,0,0,1,1.6,1.18,3.674,3.674,0,0,1,.069.78q0,10.14,0,20.27a3.594,3.594,0,0,1-.115.98,1.4,1.4,0,0,1-1.456,1.01,1.363,1.363,0,0,1-1.376-1.02,3.243,3.243,0,0,1-.114-0.98C690.615,4625.38,690.618,4622.02,690.618,4618.65Zm18.217-.01q0-5.16,0-10.31a1.552,1.552,0,0,1,1.407-1.8,1.423,1.423,0,0,1,1.591,1.2,4.448,4.448,0,0,1,.068.91q0,10.005,0,19.99a4.255,4.255,0,0,1-.1,1.05,1.488,1.488,0,0,1-2.865-.03,3.854,3.854,0,0,1-.094-0.91C708.832,4625.37,708.834,4622.01,708.835,4618.64Zm21.286,0.04c0,3.41,0,6.83,0,10.24a1.552,1.552,0,0,1-1.452,1.83,1.431,1.431,0,0,1-1.542-1.17,3.613,3.613,0,0,1-.071-0.78q-0.006-10.17,0-20.34c0-1.21.5-1.88,1.417-1.93a1.532,1.532,0,0,1,1.649,1.77c0.013,1.87,0,3.74,0,5.62C730.122,4615.5,730.122,4617.09,730.121,4618.68Zm15.146-.08q0-5.01,0-10.03a4.183,4.183,0,0,1,.046-0.77,1.5,1.5,0,0,1,2.966-.04,3.558,3.558,0,0,1,.055.71q0,10.17,0,20.34c0,0.14,0,.28-0.008.43a1.494,1.494,0,0,1-1.546,1.51,1.474,1.474,0,0,1-1.5-1.55c-0.039-1.11-.012-2.23-0.013-3.34v-7.26Zm-48.557.04c0-3.48,0-6.97,0-10.45a1.517,1.517,0,0,1,2.081-1.57,1.4,1.4,0,0,1,.924,1.38c0,0.88,0,1.76,0,2.63q0,9.18,0,18.35c0,1.12-.5,1.73-1.4,1.77a1.494,1.494,0,0,1-1.6-1.65C696.706,4625.61,696.71,4622.13,696.71,4618.64Zm9.1,0.03q0,5.19,0,10.39a1.5,1.5,0,0,1-1.5,1.69,1.428,1.428,0,0,1-1.5-1.37c-0.009-.12-0.011-0.24-0.011-0.36q0-10.38,0-20.76a1.515,1.515,0,1,1,3.008-.11c0.009,2.98,0,5.97,0,8.96v1.56Zm12.126,0.04c0,3.46,0,6.92,0,10.39a1.444,1.444,0,0,1-1.444,1.65,1.484,1.484,0,0,1-1.56-1.41c-0.01-.12,0-0.24,0-0.36q0-10.35,0-20.69a1.527,1.527,0,0,1,1.358-1.76,1.425,1.425,0,0,1,1.645,1.51c0.023,1.71.009,3.42,0.01,5.13C717.94,4615.01,717.94,4616.86,717.939,4618.71Zm6.09,0q0,5.19,0,10.38a1.382,1.382,0,0,1-.863,1.49,2.507,2.507,0,0,1-1.528-.12,1.414,1.414,0,0,1-.63-1.48q0.012-5.865,0-11.73c0-3.04-.006-6.07,0-9.1a1.451,1.451,0,0,1,1.548-1.63,1.5,1.5,0,0,1,1.458,1.67Q724.036,4613.44,724.029,4618.71Zm12.127-.04q0,5.19,0,10.39a1.465,1.465,0,0,1-1.264,1.68,1.48,1.48,0,0,1-1.74-1.51c-0.023-1.13-.006-2.27-0.006-3.41q0-8.775,0-17.56a1.538,1.538,0,0,1,1.247-1.72,1.462,1.462,0,0,1,1.76,1.61C736.162,4611.66,736.155,4615.16,736.156,4618.67Zm3.077-.07q0-5.19,0-10.38a1.508,1.508,0,1,1,3-.18c0.023,0.95.006,1.9,0.006,2.85q0,9.06,0,18.13a1.548,1.548,0,0,1-1.247,1.72,1.467,1.467,0,0,1-1.76-1.61C739.226,4625.62,739.234,4622.11,739.233,4618.6Z" transform="translate(-683.031 -4564)"/>
</svg>
