<svg xmlns="http://www.w3.org/2000/svg" width="17.75" height="12.79" viewBox="0 0 17.75 12.79">
  <defs>
    <style>
      .cls-1 {
        fill: #fff;
        fill-rule: evenodd;
      }
    </style>
  </defs>
  <path id="Shape_11_copy_3" data-name="Shape 11 copy 3" class="cls-1" d="M169.225,3122.34c0.09-.08.168-0.15,0.244-0.23q4.589-4.53,9.178-9.05a1.253,1.253,0,0,1,1.9-.04,1.213,1.213,0,0,1,.056,1.61c-0.049.06-.106,0.11-0.162,0.17q-5.145,5.07-10.288,10.15a1.226,1.226,0,0,1-1.321.35,1.378,1.378,0,0,1-.515-0.33q-2.393-2.34-4.769-4.7a1.209,1.209,0,0,1-.047-1.78,1.239,1.239,0,0,1,1.819.02q1.834,1.8,3.657,3.6C169.056,3122.19,169.136,3122.26,169.225,3122.34Z" transform="translate(-163.125 -3112.59)"/>
</svg>
